<svg xmlns="http://www.w3.org/2000/svg" xmlns:xlink="http://www.w3.org/1999/xlink" width="600" height="400" viewBox="0 0 2400 1600">
<defs>
  <clipPath id="clip260">
    <rect x="0" y="0" width="2400" height="1600"></rect>
  </clipPath>
</defs>
<path clip-path="url(#clip260)" d="M0 1600 L2400 1600 L2400 0 L0 0  Z" fill="#ffffff" fill-rule="evenodd" fill-opacity="1"></path>
<defs>
  <clipPath id="clip261">
    <rect x="480" y="0" width="1681" height="1600"></rect>
  </clipPath>
</defs>
<path clip-path="url(#clip260)" d="M149.191 1486.45 L2352.76 1486.45 L2352.76 123.472 L149.191 123.472  Z" fill="#ffffff" fill-rule="evenodd" fill-opacity="1"></path>
<defs>
  <clipPath id="clip262">
    <rect x="149" y="123" width="2205" height="1364"></rect>
  </clipPath>
</defs>
<polyline clip-path="url(#clip262)" style="stroke:#000000; stroke-linecap:round; stroke-linejoin:round; stroke-width:2; stroke-opacity:0.1; fill:none" points="350.145,1486.45 350.145,123.472 "></polyline>
<polyline clip-path="url(#clip262)" style="stroke:#000000; stroke-linecap:round; stroke-linejoin:round; stroke-width:2; stroke-opacity:0.1; fill:none" points="787.794,1486.45 787.794,123.472 "></polyline>
<polyline clip-path="url(#clip262)" style="stroke:#000000; stroke-linecap:round; stroke-linejoin:round; stroke-width:2; stroke-opacity:0.1; fill:none" points="1225.44,1486.45 1225.44,123.472 "></polyline>
<polyline clip-path="url(#clip262)" style="stroke:#000000; stroke-linecap:round; stroke-linejoin:round; stroke-width:2; stroke-opacity:0.1; fill:none" points="1663.09,1486.45 1663.09,123.472 "></polyline>
<polyline clip-path="url(#clip262)" style="stroke:#000000; stroke-linecap:round; stroke-linejoin:round; stroke-width:2; stroke-opacity:0.1; fill:none" points="2100.74,1486.45 2100.74,123.472 "></polyline>
<polyline clip-path="url(#clip260)" style="stroke:#000000; stroke-linecap:round; stroke-linejoin:round; stroke-width:4; stroke-opacity:1; fill:none" points="149.191,1486.45 2352.76,1486.45 "></polyline>
<polyline clip-path="url(#clip260)" style="stroke:#000000; stroke-linecap:round; stroke-linejoin:round; stroke-width:4; stroke-opacity:1; fill:none" points="350.145,1486.45 350.145,1467.55 "></polyline>
<polyline clip-path="url(#clip260)" style="stroke:#000000; stroke-linecap:round; stroke-linejoin:round; stroke-width:4; stroke-opacity:1; fill:none" points="787.794,1486.45 787.794,1467.55 "></polyline>
<polyline clip-path="url(#clip260)" style="stroke:#000000; stroke-linecap:round; stroke-linejoin:round; stroke-width:4; stroke-opacity:1; fill:none" points="1225.44,1486.45 1225.44,1467.55 "></polyline>
<polyline clip-path="url(#clip260)" style="stroke:#000000; stroke-linecap:round; stroke-linejoin:round; stroke-width:4; stroke-opacity:1; fill:none" points="1663.09,1486.45 1663.09,1467.55 "></polyline>
<polyline clip-path="url(#clip260)" style="stroke:#000000; stroke-linecap:round; stroke-linejoin:round; stroke-width:4; stroke-opacity:1; fill:none" points="2100.74,1486.45 2100.74,1467.55 "></polyline>
<path clip-path="url(#clip260)" d="M319.381 1532.02 L349.057 1532.02 L349.057 1535.95 L319.381 1535.95 L319.381 1532.02 Z" fill="#000000" fill-rule="evenodd" fill-opacity="1"></path><path clip-path="url(#clip260)" d="M359.288 1548.13 L359.288 1543.87 Q361.048 1544.7 362.853 1545.14 Q364.659 1545.58 366.395 1545.58 Q371.024 1545.58 373.455 1542.48 Q375.909 1539.36 376.256 1533.01 Q374.913 1535.01 372.853 1536.07 Q370.793 1537.13 368.293 1537.13 Q363.108 1537.13 360.075 1534.01 Q357.066 1530.86 357.066 1525.42 Q357.066 1520.1 360.214 1516.88 Q363.362 1513.66 368.594 1513.66 Q374.589 1513.66 377.737 1518.27 Q380.909 1522.85 380.909 1531.6 Q380.909 1539.77 377.02 1544.66 Q373.154 1549.52 366.603 1549.52 Q364.844 1549.52 363.038 1549.17 Q361.233 1548.82 359.288 1548.13 M368.594 1533.48 Q371.742 1533.48 373.571 1531.32 Q375.423 1529.17 375.423 1525.42 Q375.423 1521.7 373.571 1519.54 Q371.742 1517.37 368.594 1517.37 Q365.446 1517.37 363.594 1519.54 Q361.765 1521.7 361.765 1525.42 Q361.765 1529.17 363.594 1531.32 Q365.446 1533.48 368.594 1533.48 Z" fill="#000000" fill-rule="evenodd" fill-opacity="1"></path><path clip-path="url(#clip260)" d="M756.857 1532.02 L786.533 1532.02 L786.533 1535.95 L756.857 1535.95 L756.857 1532.02 Z" fill="#000000" fill-rule="evenodd" fill-opacity="1"></path><path clip-path="url(#clip260)" d="M807.204 1529.7 Q804.056 1529.7 802.204 1531.86 Q800.375 1534.01 800.375 1537.76 Q800.375 1541.49 802.204 1543.66 Q804.056 1545.82 807.204 1545.82 Q810.352 1545.82 812.181 1543.66 Q814.033 1541.49 814.033 1537.76 Q814.033 1534.01 812.181 1531.86 Q810.352 1529.7 807.204 1529.7 M816.486 1515.05 L816.486 1519.31 Q814.727 1518.48 812.922 1518.04 Q811.139 1517.6 809.38 1517.6 Q804.75 1517.6 802.297 1520.72 Q799.866 1523.85 799.519 1530.17 Q800.885 1528.15 802.945 1527.09 Q805.005 1526 807.482 1526 Q812.69 1526 815.699 1529.17 Q818.732 1532.32 818.732 1537.76 Q818.732 1543.08 815.584 1546.3 Q812.435 1549.52 807.204 1549.52 Q801.209 1549.52 798.037 1544.94 Q794.866 1540.33 794.866 1531.6 Q794.866 1523.41 798.755 1518.55 Q802.644 1513.66 809.195 1513.66 Q810.954 1513.66 812.736 1514.01 Q814.542 1514.36 816.486 1515.05 Z" fill="#000000" fill-rule="evenodd" fill-opacity="1"></path><path clip-path="url(#clip260)" d="M1194.91 1532.02 L1224.59 1532.02 L1224.59 1535.95 L1194.91 1535.95 L1194.91 1532.02 Z" fill="#000000" fill-rule="evenodd" fill-opacity="1"></path><path clip-path="url(#clip260)" d="M1248.85 1530.21 Q1252.2 1530.93 1254.08 1533.2 Q1255.98 1535.47 1255.98 1538.8 Q1255.98 1543.92 1252.46 1546.72 Q1248.94 1549.52 1242.46 1549.52 Q1240.28 1549.52 1237.97 1549.08 Q1235.68 1548.66 1233.22 1547.81 L1233.22 1543.29 Q1235.17 1544.43 1237.48 1545.01 Q1239.8 1545.58 1242.32 1545.58 Q1246.72 1545.58 1249.01 1543.85 Q1251.32 1542.11 1251.32 1538.8 Q1251.32 1535.75 1249.17 1534.03 Q1247.04 1532.3 1243.22 1532.3 L1239.19 1532.3 L1239.19 1528.45 L1243.41 1528.45 Q1246.86 1528.45 1248.68 1527.09 Q1250.51 1525.7 1250.51 1523.11 Q1250.51 1520.45 1248.62 1519.03 Q1246.74 1517.6 1243.22 1517.6 Q1241.3 1517.6 1239.1 1518.01 Q1236.9 1518.43 1234.26 1519.31 L1234.26 1515.14 Q1236.93 1514.4 1239.24 1514.03 Q1241.58 1513.66 1243.64 1513.66 Q1248.96 1513.66 1252.06 1516.09 Q1255.17 1518.5 1255.17 1522.62 Q1255.17 1525.49 1253.52 1527.48 Q1251.88 1529.45 1248.85 1530.21 Z" fill="#000000" fill-rule="evenodd" fill-opacity="1"></path><path clip-path="url(#clip260)" d="M1663.09 1517.37 Q1659.48 1517.37 1657.65 1520.93 Q1655.85 1524.47 1655.85 1531.6 Q1655.85 1538.71 1657.65 1542.27 Q1659.48 1545.82 1663.09 1545.82 Q1666.73 1545.82 1668.53 1542.27 Q1670.36 1538.71 1670.36 1531.6 Q1670.36 1524.47 1668.53 1520.93 Q1666.73 1517.37 1663.09 1517.37 M1663.09 1513.66 Q1668.9 1513.66 1671.96 1518.27 Q1675.04 1522.85 1675.04 1531.6 Q1675.04 1540.33 1671.96 1544.94 Q1668.9 1549.52 1663.09 1549.52 Q1657.28 1549.52 1654.2 1544.94 Q1651.15 1540.33 1651.15 1531.6 Q1651.15 1522.85 1654.2 1518.27 Q1657.28 1513.66 1663.09 1513.66 Z" fill="#000000" fill-rule="evenodd" fill-opacity="1"></path><path clip-path="url(#clip260)" d="M2104.99 1530.21 Q2108.35 1530.93 2110.22 1533.2 Q2112.12 1535.47 2112.12 1538.8 Q2112.12 1543.92 2108.6 1546.72 Q2105.08 1549.52 2098.6 1549.52 Q2096.43 1549.52 2094.11 1549.08 Q2091.82 1548.66 2089.37 1547.81 L2089.37 1543.29 Q2091.31 1544.43 2093.62 1545.01 Q2095.94 1545.58 2098.46 1545.58 Q2102.86 1545.58 2105.15 1543.85 Q2107.47 1542.11 2107.47 1538.8 Q2107.47 1535.75 2105.31 1534.03 Q2103.18 1532.3 2099.37 1532.3 L2095.34 1532.3 L2095.34 1528.45 L2099.55 1528.45 Q2103 1528.45 2104.83 1527.09 Q2106.66 1525.7 2106.66 1523.11 Q2106.66 1520.45 2104.76 1519.03 Q2102.88 1517.6 2099.37 1517.6 Q2097.44 1517.6 2095.25 1518.01 Q2093.05 1518.43 2090.41 1519.31 L2090.41 1515.14 Q2093.07 1514.4 2095.38 1514.03 Q2097.72 1513.66 2099.78 1513.66 Q2105.11 1513.66 2108.21 1516.09 Q2111.31 1518.5 2111.31 1522.62 Q2111.31 1525.49 2109.67 1527.48 Q2108.02 1529.45 2104.99 1530.21 Z" fill="#000000" fill-rule="evenodd" fill-opacity="1"></path><polyline clip-path="url(#clip262)" style="stroke:#000000; stroke-linecap:round; stroke-linejoin:round; stroke-width:2; stroke-opacity:0.1; fill:none" points="149.191,1406.39 2352.76,1406.39 "></polyline>
<polyline clip-path="url(#clip262)" style="stroke:#000000; stroke-linecap:round; stroke-linejoin:round; stroke-width:2; stroke-opacity:0.1; fill:none" points="149.191,1199 2352.76,1199 "></polyline>
<polyline clip-path="url(#clip262)" style="stroke:#000000; stroke-linecap:round; stroke-linejoin:round; stroke-width:2; stroke-opacity:0.1; fill:none" points="149.191,991.612 2352.76,991.612 "></polyline>
<polyline clip-path="url(#clip262)" style="stroke:#000000; stroke-linecap:round; stroke-linejoin:round; stroke-width:2; stroke-opacity:0.1; fill:none" points="149.191,784.221 2352.76,784.221 "></polyline>
<polyline clip-path="url(#clip262)" style="stroke:#000000; stroke-linecap:round; stroke-linejoin:round; stroke-width:2; stroke-opacity:0.1; fill:none" points="149.191,576.83 2352.76,576.83 "></polyline>
<polyline clip-path="url(#clip262)" style="stroke:#000000; stroke-linecap:round; stroke-linejoin:round; stroke-width:2; stroke-opacity:0.1; fill:none" points="149.191,369.438 2352.76,369.438 "></polyline>
<polyline clip-path="url(#clip262)" style="stroke:#000000; stroke-linecap:round; stroke-linejoin:round; stroke-width:2; stroke-opacity:0.1; fill:none" points="149.191,162.047 2352.76,162.047 "></polyline>
<polyline clip-path="url(#clip260)" style="stroke:#000000; stroke-linecap:round; stroke-linejoin:round; stroke-width:4; stroke-opacity:1; fill:none" points="149.191,1486.45 149.191,123.472 "></polyline>
<polyline clip-path="url(#clip260)" style="stroke:#000000; stroke-linecap:round; stroke-linejoin:round; stroke-width:4; stroke-opacity:1; fill:none" points="149.191,1406.39 168.089,1406.39 "></polyline>
<polyline clip-path="url(#clip260)" style="stroke:#000000; stroke-linecap:round; stroke-linejoin:round; stroke-width:4; stroke-opacity:1; fill:none" points="149.191,1199 168.089,1199 "></polyline>
<polyline clip-path="url(#clip260)" style="stroke:#000000; stroke-linecap:round; stroke-linejoin:round; stroke-width:4; stroke-opacity:1; fill:none" points="149.191,991.612 168.089,991.612 "></polyline>
<polyline clip-path="url(#clip260)" style="stroke:#000000; stroke-linecap:round; stroke-linejoin:round; stroke-width:4; stroke-opacity:1; fill:none" points="149.191,784.221 168.089,784.221 "></polyline>
<polyline clip-path="url(#clip260)" style="stroke:#000000; stroke-linecap:round; stroke-linejoin:round; stroke-width:4; stroke-opacity:1; fill:none" points="149.191,576.83 168.089,576.83 "></polyline>
<polyline clip-path="url(#clip260)" style="stroke:#000000; stroke-linecap:round; stroke-linejoin:round; stroke-width:4; stroke-opacity:1; fill:none" points="149.191,369.438 168.089,369.438 "></polyline>
<polyline clip-path="url(#clip260)" style="stroke:#000000; stroke-linecap:round; stroke-linejoin:round; stroke-width:4; stroke-opacity:1; fill:none" points="149.191,162.047 168.089,162.047 "></polyline>
<path clip-path="url(#clip260)" d="M51.3162 1406.85 L80.992 1406.85 L80.992 1410.78 L51.3162 1410.78 L51.3162 1406.85 Z" fill="#000000" fill-rule="evenodd" fill-opacity="1"></path><path clip-path="url(#clip260)" d="M101.663 1404.53 Q98.515 1404.53 96.6632 1406.68 Q94.8345 1408.84 94.8345 1412.59 Q94.8345 1416.31 96.6632 1418.49 Q98.515 1420.64 101.663 1420.64 Q104.811 1420.64 106.64 1418.49 Q108.492 1416.31 108.492 1412.59 Q108.492 1408.84 106.64 1406.68 Q104.811 1404.53 101.663 1404.53 M110.946 1389.88 L110.946 1394.14 Q109.186 1393.3 107.381 1392.86 Q105.598 1392.42 103.839 1392.42 Q99.2095 1392.42 96.7558 1395.55 Q94.3252 1398.67 93.978 1404.99 Q95.3437 1402.98 97.4039 1401.92 Q99.4641 1400.83 101.941 1400.83 Q107.149 1400.83 110.158 1404 Q113.191 1407.15 113.191 1412.59 Q113.191 1417.91 110.043 1421.13 Q106.895 1424.35 101.663 1424.35 Q95.6678 1424.35 92.4965 1419.76 Q89.3253 1415.16 89.3253 1406.43 Q89.3253 1398.24 93.2141 1393.37 Q97.103 1388.49 103.654 1388.49 Q105.413 1388.49 107.196 1388.84 Q109.001 1389.18 110.946 1389.88 Z" fill="#000000" fill-rule="evenodd" fill-opacity="1"></path><path clip-path="url(#clip260)" d="M52.4736 1199.45 L82.1494 1199.45 L82.1494 1203.39 L52.4736 1203.39 L52.4736 1199.45 Z" fill="#000000" fill-rule="evenodd" fill-opacity="1"></path><path clip-path="url(#clip260)" d="M92.2882 1181.72 L110.645 1181.72 L110.645 1185.66 L96.5706 1185.66 L96.5706 1194.13 Q97.5891 1193.78 98.6076 1193.62 Q99.6261 1193.44 100.645 1193.44 Q106.432 1193.44 109.811 1196.61 Q113.191 1199.78 113.191 1205.2 Q113.191 1210.77 109.719 1213.88 Q106.246 1216.95 99.927 1216.95 Q97.7511 1216.95 95.4826 1216.58 Q93.2373 1216.21 90.8299 1215.47 L90.8299 1210.77 Q92.9132 1211.91 95.1354 1212.46 Q97.3576 1213.02 99.8345 1213.02 Q103.839 1213.02 106.177 1210.91 Q108.515 1208.81 108.515 1205.2 Q108.515 1201.58 106.177 1199.48 Q103.839 1197.37 99.8345 1197.37 Q97.9595 1197.37 96.0845 1197.79 Q94.2326 1198.2 92.2882 1199.08 L92.2882 1181.72 Z" fill="#000000" fill-rule="evenodd" fill-opacity="1"></path><path clip-path="url(#clip260)" d="M50.9921 992.064 L80.6679 992.064 L80.6679 995.999 L50.9921 995.999 L50.9921 992.064 Z" fill="#000000" fill-rule="evenodd" fill-opacity="1"></path><path clip-path="url(#clip260)" d="M103.608 978.406 L91.8021 996.855 L103.608 996.855 L103.608 978.406 M102.381 974.332 L108.26 974.332 L108.26 996.855 L113.191 996.855 L113.191 1000.74 L108.26 1000.74 L108.26 1008.89 L103.608 1008.89 L103.608 1000.74 L88.0058 1000.74 L88.0058 996.23 L102.381 974.332 Z" fill="#000000" fill-rule="evenodd" fill-opacity="1"></path><path clip-path="url(#clip260)" d="M52.1264 784.672 L81.8021 784.672 L81.8021 788.607 L52.1264 788.607 L52.1264 784.672 Z" fill="#000000" fill-rule="evenodd" fill-opacity="1"></path><path clip-path="url(#clip260)" d="M106.061 782.867 Q109.418 783.584 111.293 785.853 Q113.191 788.121 113.191 791.455 Q113.191 796.57 109.672 799.371 Q106.154 802.172 99.6724 802.172 Q97.4965 802.172 95.1817 801.732 Q92.89 801.316 90.4364 800.459 L90.4364 795.945 Q92.3808 797.08 94.6956 797.658 Q97.0104 798.237 99.5335 798.237 Q103.932 798.237 106.223 796.501 Q108.538 794.765 108.538 791.455 Q108.538 788.399 106.385 786.686 Q104.256 784.95 100.436 784.95 L96.4085 784.95 L96.4085 781.107 L100.621 781.107 Q104.071 781.107 105.899 779.742 Q107.728 778.353 107.728 775.76 Q107.728 773.098 105.83 771.686 Q103.955 770.251 100.436 770.251 Q98.515 770.251 96.316 770.668 Q94.1169 771.084 91.478 771.964 L91.478 767.797 Q94.14 767.057 96.4548 766.686 Q98.7928 766.316 100.853 766.316 Q106.177 766.316 109.279 768.746 Q112.381 771.154 112.381 775.274 Q112.381 778.145 110.737 780.135 Q109.094 782.103 106.061 782.867 Z" fill="#000000" fill-rule="evenodd" fill-opacity="1"></path><path clip-path="url(#clip260)" d="M53.0754 577.281 L82.7512 577.281 L82.7512 581.216 L53.0754 581.216 L53.0754 577.281 Z" fill="#000000" fill-rule="evenodd" fill-opacity="1"></path><path clip-path="url(#clip260)" d="M96.8715 590.174 L113.191 590.174 L113.191 594.11 L91.2465 594.11 L91.2465 590.174 Q93.9086 587.42 98.4919 582.79 Q103.098 578.137 104.279 576.795 Q106.524 574.272 107.404 572.536 Q108.307 570.776 108.307 569.087 Q108.307 566.332 106.362 564.596 Q104.441 562.86 101.339 562.86 Q99.14 562.86 96.6863 563.624 Q94.2558 564.387 91.478 565.938 L91.478 561.216 Q94.3021 560.082 96.7558 559.503 Q99.2095 558.925 101.246 558.925 Q106.617 558.925 109.811 561.61 Q113.006 564.295 113.006 568.786 Q113.006 570.915 112.196 572.837 Q111.408 574.735 109.302 577.327 Q108.723 577.999 105.621 581.216 Q102.52 584.411 96.8715 590.174 Z" fill="#000000" fill-rule="evenodd" fill-opacity="1"></path><path clip-path="url(#clip260)" d="M52.7051 369.89 L82.3808 369.89 L82.3808 373.825 L52.7051 373.825 L52.7051 369.89 Z" fill="#000000" fill-rule="evenodd" fill-opacity="1"></path><path clip-path="url(#clip260)" d="M93.2836 382.783 L100.922 382.783 L100.922 356.417 L92.6123 358.084 L92.6123 353.825 L100.876 352.158 L105.552 352.158 L105.552 382.783 L113.191 382.783 L113.191 386.718 L93.2836 386.718 L93.2836 382.783 Z" fill="#000000" fill-rule="evenodd" fill-opacity="1"></path><path clip-path="url(#clip260)" d="M101.246 147.846 Q97.6354 147.846 95.8067 151.41 Q94.0012 154.952 94.0012 162.082 Q94.0012 169.188 95.8067 172.753 Q97.6354 176.295 101.246 176.295 Q104.881 176.295 106.686 172.753 Q108.515 169.188 108.515 162.082 Q108.515 154.952 106.686 151.41 Q104.881 147.846 101.246 147.846 M101.246 144.142 Q107.057 144.142 110.112 148.748 Q113.191 153.332 113.191 162.082 Q113.191 170.808 110.112 175.415 Q107.057 179.998 101.246 179.998 Q95.4363 179.998 92.3576 175.415 Q89.3021 170.808 89.3021 162.082 Q89.3021 153.332 92.3576 148.748 Q95.4363 144.142 101.246 144.142 Z" fill="#000000" fill-rule="evenodd" fill-opacity="1"></path><path clip-path="url(#clip260)" d="M1027.4 12.096 L1035.59 12.096 L1035.59 65.6895 L1065.04 65.6895 L1065.04 72.576 L1027.4 72.576 L1027.4 12.096 Z" fill="#000000" fill-rule="evenodd" fill-opacity="1"></path><path clip-path="url(#clip260)" d="M1093.92 49.7694 Q1084.89 49.7694 1081.4 51.8354 Q1077.92 53.9013 1077.92 58.8839 Q1077.92 62.8538 1080.51 65.2034 Q1083.14 67.5124 1087.64 67.5124 Q1093.84 67.5124 1097.57 63.1374 Q1101.33 58.7219 1101.33 51.4303 L1101.33 49.7694 L1093.92 49.7694 M1108.79 46.6907 L1108.79 72.576 L1101.33 72.576 L1101.33 65.6895 Q1098.78 69.8214 1094.97 71.8063 Q1091.17 73.7508 1085.66 73.7508 Q1078.69 73.7508 1074.56 69.8619 Q1070.47 65.9325 1070.47 59.3701 Q1070.47 51.7138 1075.57 47.825 Q1080.71 43.9361 1090.88 43.9361 L1101.33 43.9361 L1101.33 43.2069 Q1101.33 38.0623 1097.93 35.2672 Q1094.57 32.4315 1088.45 32.4315 Q1084.56 32.4315 1080.88 33.3632 Q1077.19 34.295 1073.79 36.1584 L1073.79 29.2718 Q1077.88 27.692 1081.73 26.9223 Q1085.57 26.1121 1089.22 26.1121 Q1099.06 26.1121 1103.93 31.2163 Q1108.79 36.3204 1108.79 46.6907 Z" fill="#000000" fill-rule="evenodd" fill-opacity="1"></path><path clip-path="url(#clip260)" d="M1161.85 45.1919 L1161.85 72.576 L1154.4 72.576 L1154.4 45.4349 Q1154.4 38.994 1151.89 35.7938 Q1149.38 32.5936 1144.35 32.5936 Q1138.32 32.5936 1134.83 36.4419 Q1131.35 40.2903 1131.35 46.9338 L1131.35 72.576 L1123.86 72.576 L1123.86 27.2059 L1131.35 27.2059 L1131.35 34.2544 Q1134.02 30.163 1137.63 28.1376 Q1141.27 26.1121 1146.01 26.1121 Q1153.83 26.1121 1157.84 30.9732 Q1161.85 35.7938 1161.85 45.1919 Z" fill="#000000" fill-rule="evenodd" fill-opacity="1"></path><path clip-path="url(#clip260)" d="M1206.58 34.0924 L1206.58 9.54393 L1214.03 9.54393 L1214.03 72.576 L1206.58 72.576 L1206.58 65.7705 Q1204.23 69.8214 1200.62 71.8063 Q1197.06 73.7508 1192.03 73.7508 Q1183.81 73.7508 1178.62 67.1883 Q1173.48 60.6258 1173.48 49.9314 Q1173.48 39.2371 1178.62 32.6746 Q1183.81 26.1121 1192.03 26.1121 Q1197.06 26.1121 1200.62 28.0971 Q1204.23 30.0415 1206.58 34.0924 M1181.18 49.9314 Q1181.18 58.1548 1184.54 62.8538 Q1187.94 67.5124 1193.86 67.5124 Q1199.77 67.5124 1203.17 62.8538 Q1206.58 58.1548 1206.58 49.9314 Q1206.58 41.7081 1203.17 37.0496 Q1199.77 32.3505 1193.86 32.3505 Q1187.94 32.3505 1184.54 37.0496 Q1181.18 41.7081 1181.18 49.9314 Z" fill="#000000" fill-rule="evenodd" fill-opacity="1"></path><path clip-path="url(#clip260)" d="M1264.71 35.9153 Q1267.5 30.8922 1271.39 28.5022 Q1275.28 26.1121 1280.54 26.1121 Q1287.63 26.1121 1291.48 31.0947 Q1295.33 36.0368 1295.33 45.1919 L1295.33 72.576 L1287.84 72.576 L1287.84 45.4349 Q1287.84 38.913 1285.53 35.7533 Q1283.22 32.5936 1278.48 32.5936 Q1272.69 32.5936 1269.32 36.4419 Q1265.96 40.2903 1265.96 46.9338 L1265.96 72.576 L1258.47 72.576 L1258.47 45.4349 Q1258.47 38.8725 1256.16 35.7533 Q1253.85 32.5936 1249.03 32.5936 Q1243.32 32.5936 1239.95 36.4824 Q1236.59 40.3308 1236.59 46.9338 L1236.59 72.576 L1229.1 72.576 L1229.1 27.2059 L1236.59 27.2059 L1236.59 34.2544 Q1239.14 30.082 1242.71 28.0971 Q1246.27 26.1121 1251.18 26.1121 Q1256.12 26.1121 1259.56 28.6237 Q1263.05 31.1352 1264.71 35.9153 Z" fill="#000000" fill-rule="evenodd" fill-opacity="1"></path><path clip-path="url(#clip260)" d="M1330.82 49.7694 Q1321.78 49.7694 1318.3 51.8354 Q1314.82 53.9013 1314.82 58.8839 Q1314.82 62.8538 1317.41 65.2034 Q1320.04 67.5124 1324.54 67.5124 Q1330.74 67.5124 1334.46 63.1374 Q1338.23 58.7219 1338.23 51.4303 L1338.23 49.7694 L1330.82 49.7694 M1345.68 46.6907 L1345.68 72.576 L1338.23 72.576 L1338.23 65.6895 Q1335.68 69.8214 1331.87 71.8063 Q1328.06 73.7508 1322.55 73.7508 Q1315.59 73.7508 1311.45 69.8619 Q1307.36 65.9325 1307.36 59.3701 Q1307.36 51.7138 1312.47 47.825 Q1317.61 43.9361 1327.78 43.9361 L1338.23 43.9361 L1338.23 43.2069 Q1338.23 38.0623 1334.83 35.2672 Q1331.46 32.4315 1325.35 32.4315 Q1321.46 32.4315 1317.77 33.3632 Q1314.09 34.295 1310.68 36.1584 L1310.68 29.2718 Q1314.78 27.692 1318.62 26.9223 Q1322.47 26.1121 1326.12 26.1121 Q1335.96 26.1121 1340.82 31.2163 Q1345.68 36.3204 1345.68 46.6907 Z" fill="#000000" fill-rule="evenodd" fill-opacity="1"></path><path clip-path="url(#clip260)" d="M1387.33 34.1734 Q1386.07 33.4443 1384.57 33.1202 Q1383.11 32.7556 1381.33 32.7556 Q1375.01 32.7556 1371.61 36.8875 Q1368.25 40.9789 1368.25 48.6757 L1368.25 72.576 L1360.75 72.576 L1360.75 27.2059 L1368.25 27.2059 L1368.25 34.2544 Q1370.6 30.1225 1374.36 28.1376 Q1378.13 26.1121 1383.52 26.1121 Q1384.29 26.1121 1385.22 26.2337 Q1386.15 26.3147 1387.29 26.5172 L1387.33 34.1734 Z" fill="#000000" fill-rule="evenodd" fill-opacity="1"></path><path clip-path="url(#clip260)" d="M1394.86 9.54393 L1402.36 9.54393 L1402.36 46.7717 L1424.6 27.2059 L1434.11 27.2059 L1410.05 48.4326 L1435.13 72.576 L1425.41 72.576 L1402.36 50.4176 L1402.36 72.576 L1394.86 72.576 L1394.86 9.54393 Z" fill="#000000" fill-rule="evenodd" fill-opacity="1"></path><path clip-path="url(#clip260)" d="M1472.11 28.5427 L1472.11 35.5912 Q1468.95 33.9709 1465.55 33.1607 Q1462.15 32.3505 1458.5 32.3505 Q1452.95 32.3505 1450.16 34.0519 Q1447.4 35.7533 1447.4 39.156 Q1447.4 41.7486 1449.39 43.2475 Q1451.37 44.7058 1457.37 46.0426 L1459.92 46.6097 Q1467.86 48.3111 1471.18 51.4303 Q1474.54 54.509 1474.54 60.0587 Q1474.54 66.3781 1469.52 70.0644 Q1464.54 73.7508 1455.79 73.7508 Q1452.14 73.7508 1448.17 73.0216 Q1444.24 72.3329 1439.87 70.9151 L1439.87 63.2184 Q1444 65.3654 1448.01 66.4591 Q1452.02 67.5124 1455.95 67.5124 Q1461.22 67.5124 1464.05 65.73 Q1466.89 63.9071 1466.89 60.6258 Q1466.89 57.5877 1464.82 55.9673 Q1462.8 54.3469 1455.87 52.8481 L1453.28 52.2405 Q1446.35 50.7821 1443.27 47.7845 Q1440.19 44.7463 1440.19 39.4801 Q1440.19 33.0797 1444.73 29.5959 Q1449.27 26.1121 1457.61 26.1121 Q1461.74 26.1121 1465.39 26.7198 Q1469.03 27.3274 1472.11 28.5427 Z" fill="#000000" fill-rule="evenodd" fill-opacity="1"></path><polyline clip-path="url(#clip262)" style="stroke:#1f77b4; stroke-linecap:round; stroke-linejoin:round; stroke-width:4; stroke-opacity:1; fill:none" points="1006.62,1147.16 802.383,742.743 911.795,410.916 1181.68,162.047 1663.09,162.047 1874.62,981.243 1597.45,1033.09 1283.8,1126.42 "></polyline>
<polyline clip-path="url(#clip262)" style="stroke:#1f77b4; stroke-linecap:round; stroke-linejoin:round; stroke-width:4; stroke-opacity:1; fill:none" points="889.913,1313.07 663.794,825.699 751.324,410.916 1079.56,162.047 1663.09,162.047 1998.62,1043.46 1655.8,1157.53 1276.5,1250.85 "></polyline>
<polyline clip-path="url(#clip262)" style="stroke:#1f77b4; stroke-linecap:round; stroke-linejoin:round; stroke-width:4; stroke-opacity:1; fill:none" points="846.148,1344.18 641.911,856.808 685.676,410.916 1043.09,162.047 1663.09,162.047 2100.74,1074.57 1684.98,1188.63 1269.21,1281.96 "></polyline>
<polyline clip-path="url(#clip262)" style="stroke:#1f77b4; stroke-linecap:round; stroke-linejoin:round; stroke-width:4; stroke-opacity:1; fill:none" points="802.383,1364.92 576.264,898.286 641.911,369.438 1028.5,162.047 1663.09,162.047 2144.51,1084.94 1706.86,1209.37 1247.33,1333.81 "></polyline>
<polyline clip-path="url(#clip262)" style="stroke:#1f77b4; stroke-linecap:round; stroke-linejoin:round; stroke-width:4; stroke-opacity:1; fill:none" points="714.853,1364.92 496.028,867.177 620.029,348.699 1006.62,162.047 1663.09,162.047 2188.27,1084.94 1721.45,1230.11 1225.44,1364.92 "></polyline>
<polyline clip-path="url(#clip262)" style="stroke:#1f77b4; stroke-linecap:round; stroke-linejoin:round; stroke-width:4; stroke-opacity:1; fill:none" points="627.323,1364.92 430.381,867.177 568.97,296.851 984.737,162.047 1663.09,162.047 2239.33,1095.31 1736.03,1250.85 1174.38,1385.66 "></polyline>
<polyline clip-path="url(#clip262)" style="stroke:#1f77b4; stroke-linecap:round; stroke-linejoin:round; stroke-width:4; stroke-opacity:1; fill:none" points="503.322,1333.81 320.968,815.33 496.028,265.743 948.266,162.047 1663.09,162.047 2239.33,1095.31 1736.03,1219.74 1108.74,1385.66 "></polyline>
<polyline clip-path="url(#clip262)" style="stroke:#1f77b4; stroke-linecap:round; stroke-linejoin:round; stroke-width:4; stroke-opacity:1; fill:none" points="510.616,1313.07 320.968,794.59 481.44,213.895 940.972,162.047 1663.09,162.047 2290.39,1105.68 1765.21,1240.48 1086.85,1375.29 "></polyline>
<polyline clip-path="url(#clip262)" style="stroke:#a6c3e5; stroke-linecap:round; stroke-linejoin:round; stroke-width:4; stroke-opacity:1; fill:none" points="992.031,1147.16 809.677,753.112 904.501,452.395 1181.68,162.047 1663.09,162.047 1845.45,950.134 1568.27,1022.72 1276.5,1084.94 "></polyline>
<polyline clip-path="url(#clip262)" style="stroke:#a6c3e5; stroke-linecap:round; stroke-linejoin:round; stroke-width:4; stroke-opacity:1; fill:none" points="940.972,1230.11 707.559,836.069 736.735,462.764 1108.74,162.047 1663.09,162.047 2020.51,1074.57 1655.8,1157.53 1269.21,1209.37 "></polyline>
<polyline clip-path="url(#clip262)" style="stroke:#a6c3e5; stroke-linecap:round; stroke-linejoin:round; stroke-width:4; stroke-opacity:1; fill:none" points="831.559,1313.07 598.146,867.177 656.5,431.656 1006.62,162.047 1663.09,162.047 2071.57,1084.94 1670.39,1188.63 1225.44,1271.59 "></polyline>
<polyline clip-path="url(#clip262)" style="stroke:#a6c3e5; stroke-linecap:round; stroke-linejoin:round; stroke-width:4; stroke-opacity:1; fill:none" points="795.089,1292.33 568.97,825.699 634.617,390.177 992.031,162.047 1663.09,162.047 2115.33,1095.31 1699.56,1209.37 1218.15,1292.33 "></polyline>
<polyline clip-path="url(#clip262)" style="stroke:#a6c3e5; stroke-linecap:round; stroke-linejoin:round; stroke-width:4; stroke-opacity:1; fill:none" points="671.088,1302.7 496.028,804.96 598.146,307.221 955.56,162.047 1663.09,162.047 2137.21,1105.68 1663.09,1230.11 1167.09,1323.44 "></polyline>
<polyline clip-path="url(#clip262)" style="stroke:#a6c3e5; stroke-linecap:round; stroke-linejoin:round; stroke-width:4; stroke-opacity:1; fill:none" points="598.146,1292.33 415.792,773.851 547.087,276.112 940.972,162.047 1663.09,162.047 2210.16,1126.42 1684.98,1240.48 1108.74,1364.92 "></polyline>
<polyline clip-path="url(#clip262)" style="stroke:#a6c3e5; stroke-linecap:round; stroke-linejoin:round; stroke-width:4; stroke-opacity:1; fill:none" points="510.616,1271.59 357.439,753.112 481.44,234.634 919.089,162.047 1663.09,162.047 2217.45,1126.42 1699.56,1199 1072.27,1333.81 "></polyline>
<polyline clip-path="url(#clip262)" style="stroke:#a6c3e5; stroke-linecap:round; stroke-linejoin:round; stroke-width:4; stroke-opacity:1; fill:none" points="459.557,1209.37 284.497,711.634 444.969,182.786 911.795,162.047 1663.09,162.047 2239.33,1136.79 1714.15,1199 1050.38,1292.33 "></polyline>
<polyline clip-path="url(#clip262)" style="stroke:#f68623; stroke-linecap:round; stroke-linejoin:round; stroke-width:4; stroke-opacity:1; fill:none" points="940.972,1116.05 765.912,742.743 838.853,410.916 1152.5,162.047 1663.09,162.047 1852.74,1012.35 1553.68,1043.46 1240.03,1105.68 "></polyline>
<polyline clip-path="url(#clip262)" style="stroke:#f68623; stroke-linecap:round; stroke-linejoin:round; stroke-width:4; stroke-opacity:1; fill:none" points="853.442,1292.33 627.323,867.177 700.264,421.286 1050.38,162.047 1663.09,162.047 1954.86,1095.31 1604.74,1199 1225.44,1261.22 "></polyline>
<polyline clip-path="url(#clip262)" style="stroke:#f68623; stroke-linecap:round; stroke-linejoin:round; stroke-width:4; stroke-opacity:1; fill:none" points="838.853,1333.81 576.264,867.177 656.5,390.177 1021.21,162.047 1663.09,162.047 2027.8,1136.79 1641.21,1219.74 1210.86,1302.7 "></polyline>
<polyline clip-path="url(#clip262)" style="stroke:#f68623; stroke-linecap:round; stroke-linejoin:round; stroke-width:4; stroke-opacity:1; fill:none" points="773.206,1323.44 525.205,815.33 627.323,348.699 992.031,162.047 1663.09,162.047 2093.45,1157.53 1663.09,1240.48 1188.97,1323.44 "></polyline>
<polyline clip-path="url(#clip262)" style="stroke:#f68623; stroke-linecap:round; stroke-linejoin:round; stroke-width:4; stroke-opacity:1; fill:none" points="678.382,1354.55 503.322,815.33 598.146,359.069 970.148,162.047 1663.09,162.047 2129.92,1209.37 1670.39,1271.59 1181.68,1364.92 "></polyline>
<polyline clip-path="url(#clip262)" style="stroke:#f68623; stroke-linecap:round; stroke-linejoin:round; stroke-width:4; stroke-opacity:1; fill:none" points="561.675,1364.92 401.204,836.069 539.793,307.221 962.854,162.047 1663.09,162.047 2188.27,1219.74 1670.39,1302.7 1101.44,1437.5 "></polyline>
<polyline clip-path="url(#clip262)" style="stroke:#f68623; stroke-linecap:round; stroke-linejoin:round; stroke-width:4; stroke-opacity:1; fill:none" points="510.616,1364.92 350.145,825.699 496.028,255.373 933.678,162.047 1663.09,162.047 2202.86,1209.37 1714.15,1271.59 1094.15,1437.5 "></polyline>
<polyline clip-path="url(#clip262)" style="stroke:#f68623; stroke-linecap:round; stroke-linejoin:round; stroke-width:4; stroke-opacity:1; fill:none" points="481.44,1302.7 328.262,742.743 488.734,203.525 919.089,162.047 1663.09,162.047 2232.04,1199 1706.86,1302.7 1043.09,1406.39 "></polyline>
<polyline clip-path="url(#clip262)" style="stroke:#ff7e0d; stroke-linecap:round; stroke-linejoin:round; stroke-width:4; stroke-opacity:1; fill:none" points="940.972,1126.42 751.324,732.373 838.853,400.547 1137.91,162.047 1663.09,162.047 1874.62,981.243 1560.98,1001.98 1240.03,1084.94 "></polyline>
<polyline clip-path="url(#clip262)" style="stroke:#ff7e0d; stroke-linecap:round; stroke-linejoin:round; stroke-width:4; stroke-opacity:1; fill:none" points="853.442,1271.59 656.5,846.438 729.441,431.656 1086.85,162.047 1663.09,162.047 1954.86,1136.79 1626.62,1178.26 1232.74,1230.11 "></polyline>
<polyline clip-path="url(#clip262)" style="stroke:#ff7e0d; stroke-linecap:round; stroke-linejoin:round; stroke-width:4; stroke-opacity:1; fill:none" points="831.559,1323.44 605.44,856.808 685.676,410.916 1057.68,162.047 1663.09,162.047 2035.1,1167.89 1648.5,1219.74 1218.15,1292.33 "></polyline>
<polyline clip-path="url(#clip262)" style="stroke:#ff7e0d; stroke-linecap:round; stroke-linejoin:round; stroke-width:4; stroke-opacity:1; fill:none" points="780.5,1323.44 539.793,846.438 620.029,369.438 1013.91,162.047 1663.09,162.047 2093.45,1157.53 1663.09,1219.74 1196.27,1302.7 "></polyline>
<polyline clip-path="url(#clip262)" style="stroke:#ff7e0d; stroke-linecap:round; stroke-linejoin:round; stroke-width:4; stroke-opacity:1; fill:none" points="685.676,1313.07 496.028,815.33 598.146,359.069 999.325,162.047 1663.09,162.047 2144.51,1157.53 1677.68,1230.11 1174.38,1344.18 "></polyline>
<polyline clip-path="url(#clip262)" style="stroke:#ff7e0d; stroke-linecap:round; stroke-linejoin:round; stroke-width:4; stroke-opacity:1; fill:none" points="598.146,1313.07 415.792,794.59 561.675,296.851 962.854,162.047 1663.09,162.047 2166.39,1178.26 1670.39,1240.48 1130.62,1354.55 "></polyline>
<polyline clip-path="url(#clip262)" style="stroke:#ff7e0d; stroke-linecap:round; stroke-linejoin:round; stroke-width:4; stroke-opacity:1; fill:none" points="517.911,1302.7 350.145,804.96 510.616,245.003 940.972,162.047 1663.09,162.047 2188.27,1167.89 1677.68,1230.11 1086.85,1354.55 "></polyline>
<polyline clip-path="url(#clip262)" style="stroke:#ff7e0d; stroke-linecap:round; stroke-linejoin:round; stroke-width:4; stroke-opacity:1; fill:none" points="444.969,1281.96 269.909,742.743 466.851,182.786 940.972,162.047 1663.09,162.047 2195.57,1167.89 1677.68,1240.48 1021.21,1364.92 "></polyline>
<polyline clip-path="url(#clip262)" style="stroke:#ffb168; stroke-linecap:round; stroke-linejoin:round; stroke-width:4; stroke-opacity:1; fill:none" points="970.148,1053.83 780.5,628.677 860.736,327.96 1159.8,162.047 1663.09,162.047 1830.86,939.764 1539.09,981.243 1240.03,1033.09 "></polyline>
<polyline clip-path="url(#clip262)" style="stroke:#ffb168; stroke-linecap:round; stroke-linejoin:round; stroke-width:4; stroke-opacity:1; fill:none" points="882.618,1230.11 671.088,794.59 714.853,442.025 1064.97,162.047 1663.09,162.047 1918.39,1084.94 1590.15,1136.79 1240.03,1199 "></polyline>
<polyline clip-path="url(#clip262)" style="stroke:#ffb168; stroke-linecap:round; stroke-linejoin:round; stroke-width:4; stroke-opacity:1; fill:none" points="831.559,1292.33 612.735,784.221 671.088,431.656 1021.21,162.047 1663.09,162.047 2013.21,1126.42 1633.92,1199 1232.74,1261.22 "></polyline>
<polyline clip-path="url(#clip262)" style="stroke:#ffb168; stroke-linecap:round; stroke-linejoin:round; stroke-width:4; stroke-opacity:1; fill:none" points="773.206,1281.96 561.675,773.851 627.323,379.808 977.442,162.047 1663.09,162.047 2056.98,1126.42 1663.09,1230.11 1210.86,1292.33 "></polyline>
<polyline clip-path="url(#clip262)" style="stroke:#ffb168; stroke-linecap:round; stroke-linejoin:round; stroke-width:4; stroke-opacity:1; fill:none" points="729.441,1250.85 510.616,742.743 612.735,307.221 948.266,162.047 1663.09,162.047 2108.04,1147.16 1663.09,1230.11 1181.68,1313.07 "></polyline>
<polyline clip-path="url(#clip262)" style="stroke:#ffb168; stroke-linecap:round; stroke-linejoin:round; stroke-width:4; stroke-opacity:1; fill:none" points="634.617,1323.44 444.969,773.851 561.675,296.851 948.266,162.047 1663.09,162.047 2144.51,1167.89 1677.68,1261.22 1137.91,1364.92 "></polyline>
<polyline clip-path="url(#clip262)" style="stroke:#ffb168; stroke-linecap:round; stroke-linejoin:round; stroke-width:4; stroke-opacity:1; fill:none" points="532.499,1344.18 335.557,836.069 496.028,296.851 919.089,162.047 1663.09,162.047 2159.1,1157.53 1670.39,1271.59 1079.56,1406.39 "></polyline>
<polyline clip-path="url(#clip262)" style="stroke:#ffb168; stroke-linecap:round; stroke-linejoin:round; stroke-width:4; stroke-opacity:1; fill:none" points="503.322,1344.18 342.851,804.96 474.146,255.373 926.383,162.047 1663.09,162.047 2195.57,1178.26 1670.39,1281.96 1043.09,1416.76 "></polyline>
<polyline clip-path="url(#clip262)" style="stroke:#ffba78; stroke-linecap:round; stroke-linejoin:round; stroke-width:4; stroke-opacity:1; fill:none" points="955.56,1126.42 795.089,742.743 868.03,442.025 1167.09,162.047 1663.09,162.047 1838.15,1012.35 1531.8,1022.72 1254.62,1095.31 "></polyline>
<polyline clip-path="url(#clip262)" style="stroke:#ffba78; stroke-linecap:round; stroke-linejoin:round; stroke-width:4; stroke-opacity:1; fill:none" points="904.501,1261.22 700.264,836.069 765.912,442.025 1094.15,162.047 1663.09,162.047 1954.86,1095.31 1597.45,1167.89 1247.33,1230.11 "></polyline>
<polyline clip-path="url(#clip262)" style="stroke:#ffba78; stroke-linecap:round; stroke-linejoin:round; stroke-width:4; stroke-opacity:1; fill:none" points="846.148,1281.96 634.617,815.33 707.559,390.177 1050.38,162.047 1663.09,162.047 2005.92,1116.05 1641.21,1188.63 1232.74,1261.22 "></polyline>
<polyline clip-path="url(#clip262)" style="stroke:#ffba78; stroke-linecap:round; stroke-linejoin:round; stroke-width:4; stroke-opacity:1; fill:none" points="787.794,1250.85 576.264,763.482 641.911,348.699 1043.09,162.047 1663.09,162.047 2071.57,1126.42 1663.09,1178.26 1196.27,1271.59 "></polyline>
<polyline clip-path="url(#clip262)" style="stroke:#ffba78; stroke-linecap:round; stroke-linejoin:round; stroke-width:4; stroke-opacity:1; fill:none" points="751.324,1271.59 561.675,773.851 656.5,317.59 1028.5,162.047 1663.09,162.047 2144.51,1126.42 1677.68,1199 1196.27,1292.33 "></polyline>
<polyline clip-path="url(#clip262)" style="stroke:#ffba78; stroke-linecap:round; stroke-linejoin:round; stroke-width:4; stroke-opacity:1; fill:none" points="649.205,1333.81 481.44,794.59 598.146,286.482 999.325,162.047 1663.09,162.047 2217.45,1136.79 1692.27,1250.85 1152.5,1364.92 "></polyline>
<polyline clip-path="url(#clip262)" style="stroke:#ffba78; stroke-linecap:round; stroke-linejoin:round; stroke-width:4; stroke-opacity:1; fill:none" points="568.97,1323.44 430.381,742.743 561.675,245.003 977.442,162.047 1663.09,162.047 2232.04,1136.79 1714.15,1240.48 1116.03,1364.92 "></polyline>
<polyline clip-path="url(#clip262)" style="stroke:#ffba78; stroke-linecap:round; stroke-linejoin:round; stroke-width:4; stroke-opacity:1; fill:none" points="539.793,1240.48 372.027,711.634 554.381,172.416 962.854,162.047 1663.09,162.047 2246.63,1136.79 1736.03,1240.48 1064.97,1313.07 "></polyline>
<polyline clip-path="url(#clip262)" style="stroke:#56a53b; stroke-linecap:round; stroke-linejoin:round; stroke-width:4; stroke-opacity:1; fill:none" points="1006.62,1116.05 831.559,742.743 875.324,410.916 1174.38,162.047 1663.09,162.047 1823.56,981.243 1560.98,1033.09 1276.5,1074.57 "></polyline>
<polyline clip-path="url(#clip262)" style="stroke:#56a53b; stroke-linecap:round; stroke-linejoin:round; stroke-width:4; stroke-opacity:1; fill:none" points="904.501,1261.22 700.264,856.808 773.206,421.286 1108.74,162.047 1663.09,162.047 1947.57,1064.2 1619.33,1116.05 1254.62,1219.74 "></polyline>
<polyline clip-path="url(#clip262)" style="stroke:#56a53b; stroke-linecap:round; stroke-linejoin:round; stroke-width:4; stroke-opacity:1; fill:none" points="816.971,1261.22 612.735,804.96 700.264,369.438 1064.97,162.047 1663.09,162.047 2027.8,1116.05 1648.5,1157.53 1225.44,1250.85 "></polyline>
<polyline clip-path="url(#clip262)" style="stroke:#56a53b; stroke-linecap:round; stroke-linejoin:round; stroke-width:4; stroke-opacity:1; fill:none" points="773.206,1250.85 561.675,773.851 641.911,317.59 1021.21,162.047 1663.09,162.047 2071.57,1095.31 1670.39,1178.26 1210.86,1250.85 "></polyline>
<polyline clip-path="url(#clip262)" style="stroke:#56a53b; stroke-linecap:round; stroke-linejoin:round; stroke-width:4; stroke-opacity:1; fill:none" points="722.147,1281.96 525.205,773.851 634.617,307.221 1013.91,162.047 1663.09,162.047 2137.21,1095.31 1692.27,1178.26 1188.97,1271.59 "></polyline>
<polyline clip-path="url(#clip262)" style="stroke:#56a53b; stroke-linecap:round; stroke-linejoin:round; stroke-width:4; stroke-opacity:1; fill:none" points="627.323,1323.44 437.675,804.96 612.735,276.112 977.442,162.047 1663.09,162.047 2195.57,1105.68 1714.15,1199 1137.91,1313.07 "></polyline>
<polyline clip-path="url(#clip262)" style="stroke:#56a53b; stroke-linecap:round; stroke-linejoin:round; stroke-width:4; stroke-opacity:1; fill:none" points="539.793,1271.59 364.733,742.743 510.616,234.634 948.266,162.047 1663.09,162.047 2210.16,1105.68 1677.68,1219.74 1079.56,1302.7 "></polyline>
<polyline clip-path="url(#clip262)" style="stroke:#56a53b; stroke-linecap:round; stroke-linejoin:round; stroke-width:4; stroke-opacity:1; fill:none" points="466.851,1271.59 320.968,722.003 466.851,193.156 933.678,162.047 1663.09,162.047 2217.45,1105.68 1677.68,1219.74 1035.8,1302.7 "></polyline>
<polyline clip-path="url(#clip262)" style="stroke:#2ba02b; stroke-linecap:round; stroke-linejoin:round; stroke-width:4; stroke-opacity:1; fill:none" points="970.148,1084.94 802.383,701.264 882.618,410.916 1152.5,162.047 1663.09,162.047 1808.98,970.873 1531.8,1012.35 1261.91,1053.83 "></polyline>
<polyline clip-path="url(#clip262)" style="stroke:#2ba02b; stroke-linecap:round; stroke-linejoin:round; stroke-width:4; stroke-opacity:1; fill:none" points="889.913,1240.48 685.676,825.699 744.029,452.395 1064.97,162.047 1663.09,162.047 1932.98,1043.46 1626.62,1116.05 1240.03,1178.26 "></polyline>
<polyline clip-path="url(#clip262)" style="stroke:#2ba02b; stroke-linecap:round; stroke-linejoin:round; stroke-width:4; stroke-opacity:1; fill:none" points="875.324,1271.59 656.5,846.438 729.441,431.656 1057.68,162.047 1663.09,162.047 2005.92,1074.57 1655.8,1157.53 1254.62,1261.22 "></polyline>
<polyline clip-path="url(#clip262)" style="stroke:#2ba02b; stroke-linecap:round; stroke-linejoin:round; stroke-width:4; stroke-opacity:1; fill:none" points="729.441,1271.59 568.97,825.699 649.205,348.699 1035.8,162.047 1663.09,162.047 2027.8,1167.89 1655.8,1240.48 1174.38,1292.33 "></polyline>
<polyline clip-path="url(#clip262)" style="stroke:#2ba02b; stroke-linecap:round; stroke-linejoin:round; stroke-width:4; stroke-opacity:1; fill:none" points="700.264,1271.59 525.205,784.221 641.911,307.221 999.325,162.047 1663.09,162.047 2078.86,1126.42 1655.8,1209.37 1159.8,1302.7 "></polyline>
<polyline clip-path="url(#clip262)" style="stroke:#2ba02b; stroke-linecap:round; stroke-linejoin:round; stroke-width:4; stroke-opacity:1; fill:none" points="590.852,1344.18 459.557,804.96 612.735,296.851 977.442,162.047 1663.09,162.047 2144.51,1178.26 1677.68,1219.74 1116.03,1375.29 "></polyline>
<polyline clip-path="url(#clip262)" style="stroke:#2ba02b; stroke-linecap:round; stroke-linejoin:round; stroke-width:4; stroke-opacity:1; fill:none" points="481.44,1354.55 379.322,804.96 547.087,276.112 940.972,162.047 1663.09,162.047 2159.1,1178.26 1670.39,1240.48 1050.38,1385.66 "></polyline>
<polyline clip-path="url(#clip262)" style="stroke:#2ba02b; stroke-linecap:round; stroke-linejoin:round; stroke-width:4; stroke-opacity:1; fill:none" points="481.44,1323.44 320.968,804.96 525.205,245.003 919.089,162.047 1663.09,162.047 2195.57,1188.63 1670.39,1250.85 1028.5,1396.03 "></polyline>
<polyline clip-path="url(#clip262)" style="stroke:#7dcf72; stroke-linecap:round; stroke-linejoin:round; stroke-width:4; stroke-opacity:1; fill:none" points="992.031,1116.05 809.677,722.003 904.501,400.547 1203.56,162.047 1663.09,162.047 1889.21,981.243 1568.27,1022.72 1291.09,1095.31 "></polyline>
<polyline clip-path="url(#clip262)" style="stroke:#7dcf72; stroke-linecap:round; stroke-linejoin:round; stroke-width:4; stroke-opacity:1; fill:none" points="933.678,1219.74 678.382,825.699 744.029,421.286 1064.97,162.047 1663.09,162.047 1911.09,1033.09 1590.15,1116.05 1247.33,1178.26 "></polyline>
<polyline clip-path="url(#clip262)" style="stroke:#7dcf72; stroke-linecap:round; stroke-linejoin:round; stroke-width:4; stroke-opacity:1; fill:none" points="846.148,1240.48 641.911,784.221 714.853,379.808 1021.21,162.047 1663.09,162.047 1984.04,1053.83 1641.21,1167.89 1240.03,1219.74 "></polyline>
<polyline clip-path="url(#clip262)" style="stroke:#7dcf72; stroke-linecap:round; stroke-linejoin:round; stroke-width:4; stroke-opacity:1; fill:none" points="773.206,1250.85 539.793,753.112 671.088,348.699 977.442,162.047 1663.09,162.047 2035.1,1064.2 1641.21,1188.63 1196.27,1250.85 "></polyline>
<polyline clip-path="url(#clip262)" style="stroke:#7dcf72; stroke-linecap:round; stroke-linejoin:round; stroke-width:4; stroke-opacity:1; fill:none" points="685.676,1240.48 503.322,732.373 649.205,276.112 977.442,162.047 1663.09,162.047 2086.15,1116.05 1633.92,1219.74 1152.5,1281.96 "></polyline>
<polyline clip-path="url(#clip262)" style="stroke:#7dcf72; stroke-linecap:round; stroke-linejoin:round; stroke-width:4; stroke-opacity:1; fill:none" points="590.852,1209.37 437.675,701.264 598.146,224.264 970.148,162.047 1663.09,162.047 2108.04,1126.42 1619.33,1209.37 1079.56,1292.33 "></polyline>
<polyline clip-path="url(#clip262)" style="stroke:#7dcf72; stroke-linecap:round; stroke-linejoin:round; stroke-width:4; stroke-opacity:1; fill:none" points="525.205,1240.48 393.91,711.634 532.499,234.634 948.266,162.047 1663.09,162.047 2129.92,1167.89 1626.62,1199 1043.09,1302.7 "></polyline>
<polyline clip-path="url(#clip262)" style="stroke:#7dcf72; stroke-linecap:round; stroke-linejoin:round; stroke-width:4; stroke-opacity:1; fill:none" points="459.557,1261.22 335.557,722.003 488.734,213.895 926.383,162.047 1663.09,162.047 2144.51,1167.89 1655.8,1188.63 1006.62,1323.44 "></polyline>
<polyline clip-path="url(#clip262)" style="stroke:#98de8a; stroke-linecap:round; stroke-linejoin:round; stroke-width:4; stroke-opacity:1; fill:none" points="940.972,1157.53 809.677,753.112 875.324,400.547 1181.68,162.047 1663.09,162.047 1852.74,981.243 1539.09,1043.46 1232.74,1116.05 "></polyline>
<polyline clip-path="url(#clip262)" style="stroke:#98de8a; stroke-linecap:round; stroke-linejoin:round; stroke-width:4; stroke-opacity:1; fill:none" points="853.442,1271.59 634.617,836.069 714.853,421.286 1035.8,162.047 1663.09,162.047 1932.98,1116.05 1575.56,1188.63 1218.15,1261.22 "></polyline>
<polyline clip-path="url(#clip262)" style="stroke:#98de8a; stroke-linecap:round; stroke-linejoin:round; stroke-width:4; stroke-opacity:1; fill:none" points="795.089,1333.81 583.558,846.438 649.205,421.286 992.031,162.047 1663.09,162.047 1998.62,1178.26 1619.33,1240.48 1210.86,1323.44 "></polyline>
<polyline clip-path="url(#clip262)" style="stroke:#98de8a; stroke-linecap:round; stroke-linejoin:round; stroke-width:4; stroke-opacity:1; fill:none" points="773.206,1333.81 532.499,825.699 612.735,359.069 962.854,162.047 1663.09,162.047 2086.15,1126.42 1655.8,1230.11 1196.27,1323.44 "></polyline>
<polyline clip-path="url(#clip262)" style="stroke:#98de8a; stroke-linecap:round; stroke-linejoin:round; stroke-width:4; stroke-opacity:1; fill:none" points="700.264,1364.92 481.44,804.96 590.852,348.699 955.56,162.047 1663.09,162.047 2137.21,1147.16 1670.39,1271.59 1167.09,1375.29 "></polyline>
<polyline clip-path="url(#clip262)" style="stroke:#98de8a; stroke-linecap:round; stroke-linejoin:round; stroke-width:4; stroke-opacity:1; fill:none" points="612.735,1416.76 408.498,898.286 561.675,338.33 933.678,162.047 1663.09,162.047 2173.68,1147.16 1677.68,1292.33 1130.62,1427.13 "></polyline>
<polyline clip-path="url(#clip262)" style="stroke:#98de8a; stroke-linecap:round; stroke-linejoin:round; stroke-width:4; stroke-opacity:1; fill:none" points="525.205,1354.55 320.968,825.699 459.557,296.851 904.501,162.047 1663.09,162.047 2202.86,1147.16 1677.68,1292.33 1057.68,1396.03 "></polyline>
<polyline clip-path="url(#clip262)" style="stroke:#98de8a; stroke-linecap:round; stroke-linejoin:round; stroke-width:4; stroke-opacity:1; fill:none" points="452.263,1333.81 291.792,804.96 408.498,276.112 904.501,162.047 1663.09,162.047 2246.63,1188.63 1677.68,1323.44 1035.8,1385.66 "></polyline>
<polyline clip-path="url(#clip262)" style="stroke:#c35e45; stroke-linecap:round; stroke-linejoin:round; stroke-width:4; stroke-opacity:1; fill:none" points="977.442,1116.05 780.5,701.264 882.618,379.808 1174.38,162.047 1663.09,162.047 1816.27,929.395 1553.68,991.612 1269.21,1053.83 "></polyline>
<polyline clip-path="url(#clip262)" style="stroke:#c35e45; stroke-linecap:round; stroke-linejoin:round; stroke-width:4; stroke-opacity:1; fill:none" points="875.324,1240.48 656.5,784.221 744.029,400.547 1064.97,162.047 1663.09,162.047 1954.86,1116.05 1604.74,1178.26 1232.74,1230.11 "></polyline>
<polyline clip-path="url(#clip262)" style="stroke:#c35e45; stroke-linecap:round; stroke-linejoin:round; stroke-width:4; stroke-opacity:1; fill:none" points="824.265,1292.33 561.675,815.33 641.911,369.438 992.031,162.047 1663.09,162.047 1998.62,1095.31 1633.92,1209.37 1218.15,1281.96 "></polyline>
<polyline clip-path="url(#clip262)" style="stroke:#c35e45; stroke-linecap:round; stroke-linejoin:round; stroke-width:4; stroke-opacity:1; fill:none" points="751.324,1292.33 510.616,763.482 605.44,327.96 977.442,162.047 1663.09,162.047 2078.86,1095.31 1663.09,1199 1196.27,1313.07 "></polyline>
<polyline clip-path="url(#clip262)" style="stroke:#c35e45; stroke-linecap:round; stroke-linejoin:round; stroke-width:4; stroke-opacity:1; fill:none" points="656.5,1313.07 430.381,804.96 568.97,327.96 962.854,162.047 1663.09,162.047 2137.21,1167.89 1641.21,1250.85 1152.5,1354.55 "></polyline>
<polyline clip-path="url(#clip262)" style="stroke:#c35e45; stroke-linecap:round; stroke-linejoin:round; stroke-width:4; stroke-opacity:1; fill:none" points="561.675,1333.81 364.733,846.438 532.499,286.482 940.972,162.047 1663.09,162.047 2195.57,1178.26 1655.8,1281.96 1108.74,1364.92 "></polyline>
<polyline clip-path="url(#clip262)" style="stroke:#c35e45; stroke-linecap:round; stroke-linejoin:round; stroke-width:4; stroke-opacity:1; fill:none" points="496.028,1323.44 299.086,815.33 437.675,276.112 919.089,162.047 1663.09,162.047 2217.45,1178.26 1677.68,1281.96 1057.68,1375.29 "></polyline>
<polyline clip-path="url(#clip262)" style="stroke:#c35e45; stroke-linecap:round; stroke-linejoin:round; stroke-width:4; stroke-opacity:1; fill:none" points="466.851,1354.55 299.086,815.33 423.086,255.373 919.089,162.047 1663.09,162.047 2283.1,1188.63 1728.74,1271.59 1057.68,1385.66 "></polyline>
<polyline clip-path="url(#clip262)" style="stroke:#f0706f; stroke-linecap:round; stroke-linejoin:round; stroke-width:4; stroke-opacity:1; fill:none" points="940.972,1105.68 765.912,722.003 824.265,400.547 1130.62,162.047 1663.09,162.047 1779.8,970.873 1509.92,1012.35 1232.74,1064.2 "></polyline>
<polyline clip-path="url(#clip262)" style="stroke:#f0706f; stroke-linecap:round; stroke-linejoin:round; stroke-width:4; stroke-opacity:1; fill:none" points="897.207,1271.59 685.676,836.069 765.912,421.286 1079.56,162.047 1663.09,162.047 1940.27,1064.2 1590.15,1147.16 1240.03,1219.74 "></polyline>
<polyline clip-path="url(#clip262)" style="stroke:#f0706f; stroke-linecap:round; stroke-linejoin:round; stroke-width:4; stroke-opacity:1; fill:none" points="802.383,1292.33 583.558,836.069 663.794,421.286 992.031,162.047 1663.09,162.047 2005.92,1116.05 1626.62,1188.63 1218.15,1271.59 "></polyline>
<polyline clip-path="url(#clip262)" style="stroke:#f0706f; stroke-linecap:round; stroke-linejoin:round; stroke-width:4; stroke-opacity:1; fill:none" points="802.383,1292.33 554.381,825.699 649.205,390.177 984.737,162.047 1663.09,162.047 2086.15,1147.16 1663.09,1199 1218.15,1292.33 "></polyline>
<polyline clip-path="url(#clip262)" style="stroke:#f0706f; stroke-linecap:round; stroke-linejoin:round; stroke-width:4; stroke-opacity:1; fill:none" points="714.853,1313.07 517.911,804.96 641.911,348.699 977.442,162.047 1663.09,162.047 2129.92,1126.42 1684.98,1209.37 1196.27,1344.18 "></polyline>
<polyline clip-path="url(#clip262)" style="stroke:#f0706f; stroke-linecap:round; stroke-linejoin:round; stroke-width:4; stroke-opacity:1; fill:none" points="598.146,1396.03 415.792,856.808 568.97,317.59 970.148,162.047 1663.09,162.047 2166.39,1178.26 1699.56,1250.85 1108.74,1396.03 "></polyline>
<polyline clip-path="url(#clip262)" style="stroke:#f0706f; stroke-linecap:round; stroke-linejoin:round; stroke-width:4; stroke-opacity:1; fill:none" points="525.205,1354.55 357.439,825.699 503.322,286.482 933.678,162.047 1663.09,162.047 2180.98,1157.53 1699.56,1230.11 1086.85,1385.66 "></polyline>
<polyline clip-path="url(#clip262)" style="stroke:#f0706f; stroke-linecap:round; stroke-linejoin:round; stroke-width:4; stroke-opacity:1; fill:none" points="437.675,1344.18 291.792,763.482 459.557,234.634 919.089,162.047 1663.09,162.047 2188.27,1178.26 1699.56,1250.85 1028.5,1375.29 "></polyline>
<polyline clip-path="url(#clip262)" style="stroke:#ff9895; stroke-linecap:round; stroke-linejoin:round; stroke-width:4; stroke-opacity:1; fill:none" points="984.737,1087.01 802.383,753.112 875.324,390.177 1152.5,162.047 1663.09,162.047 1794.39,929.395 1531.8,991.612 1254.62,1074.57 "></polyline>
<polyline clip-path="url(#clip262)" style="stroke:#ff9895; stroke-linecap:round; stroke-linejoin:round; stroke-width:4; stroke-opacity:1; fill:none" points="897.207,1250.85 656.5,825.699 758.618,421.286 1079.56,162.047 1663.09,162.047 1925.68,1105.68 1597.45,1136.79 1254.62,1209.37 "></polyline>
<polyline clip-path="url(#clip262)" style="stroke:#ff9895; stroke-linecap:round; stroke-linejoin:round; stroke-width:4; stroke-opacity:1; fill:none" points="780.5,1281.96 583.558,815.33 678.382,379.808 1013.91,162.047 1663.09,162.047 1969.45,1136.79 1604.74,1188.63 1196.27,1261.22 "></polyline>
<polyline clip-path="url(#clip262)" style="stroke:#ff9895; stroke-linecap:round; stroke-linejoin:round; stroke-width:4; stroke-opacity:1; fill:none" points="722.147,1313.07 525.205,784.221 634.617,327.96 1013.91,162.047 1663.09,162.047 2056.98,1178.26 1604.74,1199 1159.8,1292.33 "></polyline>
<polyline clip-path="url(#clip262)" style="stroke:#ff9895; stroke-linecap:round; stroke-linejoin:round; stroke-width:4; stroke-opacity:1; fill:none" points="678.382,1292.33 481.44,784.221 620.029,307.221 977.442,162.047 1663.09,162.047 2093.45,1178.26 1633.92,1219.74 1145.21,1313.07 "></polyline>
<polyline clip-path="url(#clip262)" style="stroke:#ff9895; stroke-linecap:round; stroke-linejoin:round; stroke-width:4; stroke-opacity:1; fill:none" points="598.146,1344.18 444.969,784.221 598.146,286.482 970.148,162.047 1663.09,162.047 2151.8,1167.89 1663.09,1209.37 1123.33,1344.18 "></polyline>
<polyline clip-path="url(#clip262)" style="stroke:#ff9895; stroke-linecap:round; stroke-linejoin:round; stroke-width:4; stroke-opacity:1; fill:none" points="547.087,1313.07 401.204,763.482 561.675,245.003 962.854,162.047 1663.09,162.047 2173.68,1167.89 1655.8,1261.22 1072.27,1333.81 "></polyline>
<polyline clip-path="url(#clip262)" style="stroke:#ff9895; stroke-linecap:round; stroke-linejoin:round; stroke-width:4; stroke-opacity:1; fill:none" points="452.263,1313.07 320.968,773.851 496.028,213.895 940.972,162.047 1663.09,162.047 2224.74,1178.26 1684.98,1250.85 1021.21,1375.29 "></polyline>
<polyline clip-path="url(#clip262)" style="stroke:#be7aad; stroke-linecap:round; stroke-linejoin:round; stroke-width:4; stroke-opacity:1; fill:none" points="955.56,1126.42 780.5,722.003 875.324,400.547 1167.09,162.047 1663.09,162.047 1823.56,960.503 1546.39,1001.98 1240.03,1074.57 "></polyline>
<polyline clip-path="url(#clip262)" style="stroke:#be7aad; stroke-linecap:round; stroke-linejoin:round; stroke-width:4; stroke-opacity:1; fill:none" points="846.148,1261.22 641.911,825.699 714.853,421.286 1013.91,162.047 1663.09,162.047 1940.27,1033.09 1604.74,1105.68 1218.15,1219.74 "></polyline>
<polyline clip-path="url(#clip262)" style="stroke:#be7aad; stroke-linecap:round; stroke-linejoin:round; stroke-width:4; stroke-opacity:1; fill:none" points="765.912,1281.96 568.97,825.699 671.088,359.069 984.737,162.047 1663.09,162.047 1984.04,1105.68 1604.74,1178.26 1181.68,1261.22 "></polyline>
<polyline clip-path="url(#clip262)" style="stroke:#be7aad; stroke-linecap:round; stroke-linejoin:round; stroke-width:4; stroke-opacity:1; fill:none" points="758.618,1302.7 547.087,825.699 656.5,348.699 970.148,162.047 1663.09,162.047 2064.27,1136.79 1633.92,1178.26 1181.68,1302.7 "></polyline>
<polyline clip-path="url(#clip262)" style="stroke:#be7aad; stroke-linecap:round; stroke-linejoin:round; stroke-width:4; stroke-opacity:1; fill:none" points="671.088,1364.92 496.028,825.699 634.617,327.96 962.854,162.047 1663.09,162.047 2129.92,1136.79 1670.39,1230.11 1174.38,1354.55 "></polyline>
<polyline clip-path="url(#clip262)" style="stroke:#be7aad; stroke-linecap:round; stroke-linejoin:round; stroke-width:4; stroke-opacity:1; fill:none" points="590.852,1437.5 408.498,898.286 568.97,327.96 955.56,162.047 1663.09,162.047 2180.98,1116.05 1677.68,1261.22 1123.33,1396.03 "></polyline>
<polyline clip-path="url(#clip262)" style="stroke:#be7aad; stroke-linecap:round; stroke-linejoin:round; stroke-width:4; stroke-opacity:1; fill:none" points="525.205,1375.29 350.145,846.438 532.499,276.112 933.678,162.047 1663.09,162.047 2180.98,1126.42 1684.98,1240.48 1072.27,1364.92 "></polyline>
<polyline clip-path="url(#clip262)" style="stroke:#be7aad; stroke-linecap:round; stroke-linejoin:round; stroke-width:4; stroke-opacity:1; fill:none" points="466.851,1323.44 313.674,794.59 496.028,213.895 933.678,162.047 1663.09,162.047 2180.98,1136.79 1684.98,1250.85 1043.09,1354.55 "></polyline>
<polyline clip-path="url(#clip262)" style="stroke:#9466bd; stroke-linecap:round; stroke-linejoin:round; stroke-width:4; stroke-opacity:1; fill:none" points="926.383,1147.16 714.853,732.373 831.559,421.286 1137.91,162.047 1663.09,162.047 1874.62,919.025 1568.27,1001.98 1247.33,1105.68 "></polyline>
<polyline clip-path="url(#clip262)" style="stroke:#9466bd; stroke-linecap:round; stroke-linejoin:round; stroke-width:4; stroke-opacity:1; fill:none" points="824.265,1240.48 641.911,794.59 714.853,421.286 1035.8,162.047 1663.09,162.047 1969.45,1074.57 1604.74,1147.16 1225.44,1219.74 "></polyline>
<polyline clip-path="url(#clip262)" style="stroke:#9466bd; stroke-linecap:round; stroke-linejoin:round; stroke-width:4; stroke-opacity:1; fill:none" points="751.324,1271.59 561.675,794.59 678.382,369.438 999.325,162.047 1663.09,162.047 2013.21,1116.05 1612.03,1199 1196.27,1281.96 "></polyline>
<polyline clip-path="url(#clip262)" style="stroke:#9466bd; stroke-linecap:round; stroke-linejoin:round; stroke-width:4; stroke-opacity:1; fill:none" points="722.147,1313.07 517.911,815.33 627.323,338.33 962.854,162.047 1663.09,162.047 2071.57,1147.16 1633.92,1250.85 1152.5,1333.81 "></polyline>
<polyline clip-path="url(#clip262)" style="stroke:#9466bd; stroke-linecap:round; stroke-linejoin:round; stroke-width:4; stroke-opacity:1; fill:none" points="678.382,1333.81 474.146,836.069 605.44,317.59 948.266,162.047 1663.09,162.047 2115.33,1167.89 1655.8,1230.11 1137.91,1375.29 "></polyline>
<polyline clip-path="url(#clip262)" style="stroke:#9466bd; stroke-linecap:round; stroke-linejoin:round; stroke-width:4; stroke-opacity:1; fill:none" points="568.97,1364.92 415.792,846.438 590.852,296.851 962.854,162.047 1663.09,162.047 2173.68,1178.26 1641.21,1281.96 1086.85,1416.76 "></polyline>
<polyline clip-path="url(#clip262)" style="stroke:#9466bd; stroke-linecap:round; stroke-linejoin:round; stroke-width:4; stroke-opacity:1; fill:none" points="444.969,1333.81 328.262,794.59 503.322,245.003 940.972,162.047 1663.09,162.047 2210.16,1209.37 1663.09,1281.96 1021.21,1416.76 "></polyline>
<polyline clip-path="url(#clip262)" style="stroke:#9466bd; stroke-linecap:round; stroke-linejoin:round; stroke-width:4; stroke-opacity:1; fill:none" points="393.91,1281.96 299.086,690.895 466.851,182.786 919.089,162.047 1663.09,162.047 2232.04,1219.74 1670.39,1271.59 992.031,1396.03 "></polyline>
<polyline clip-path="url(#clip262)" style="stroke:#ae8fca; stroke-linecap:round; stroke-linejoin:round; stroke-width:4; stroke-opacity:1; fill:none" points="882.618,1167.89 722.147,732.373 824.265,421.286 1108.74,162.047 1663.09,162.047 1838.15,1022.72 1517.21,1084.94 1210.86,1126.42 "></polyline>
<polyline clip-path="url(#clip262)" style="stroke:#ae8fca; stroke-linecap:round; stroke-linejoin:round; stroke-width:4; stroke-opacity:1; fill:none" points="831.559,1313.07 605.44,836.069 678.382,452.395 1035.8,162.047 1663.09,162.047 1911.09,1136.79 1590.15,1199 1196.27,1292.33 "></polyline>
<polyline clip-path="url(#clip262)" style="stroke:#ae8fca; stroke-linecap:round; stroke-linejoin:round; stroke-width:4; stroke-opacity:1; fill:none" points="707.559,1323.44 488.734,836.069 576.264,421.286 940.972,162.047 1663.09,162.047 1962.15,1209.37 1560.98,1250.85 1152.5,1333.81 "></polyline>
<polyline clip-path="url(#clip262)" style="stroke:#ae8fca; stroke-linecap:round; stroke-linejoin:round; stroke-width:4; stroke-opacity:1; fill:none" points="685.676,1385.66 459.557,856.808 554.381,390.177 933.678,162.047 1663.09,162.047 2027.8,1219.74 1560.98,1250.85 1145.21,1364.92 "></polyline>
<polyline clip-path="url(#clip262)" style="stroke:#ae8fca; stroke-linecap:round; stroke-linejoin:round; stroke-width:4; stroke-opacity:1; fill:none" points="583.558,1406.39 393.91,856.808 517.911,359.069 919.089,162.047 1663.09,162.047 2056.98,1230.11 1619.33,1292.33 1101.44,1406.39 "></polyline>
<polyline clip-path="url(#clip262)" style="stroke:#ae8fca; stroke-linecap:round; stroke-linejoin:round; stroke-width:4; stroke-opacity:1; fill:none" points="510.616,1416.76 335.557,887.917 488.734,338.33 897.207,162.047 1663.09,162.047 2122.63,1230.11 1619.33,1323.44 1064.97,1447.87 "></polyline>
<polyline clip-path="url(#clip262)" style="stroke:#ae8fca; stroke-linecap:round; stroke-linejoin:round; stroke-width:4; stroke-opacity:1; fill:none" points="452.263,1375.29 284.497,846.438 430.381,276.112 875.324,162.047 1663.09,162.047 2159.1,1219.74 1633.92,1313.07 1013.91,1406.39 "></polyline>
<polyline clip-path="url(#clip262)" style="stroke:#ae8fca; stroke-linecap:round; stroke-linejoin:round; stroke-width:4; stroke-opacity:1; fill:none" points="401.204,1344.18 240.733,836.069 423.086,265.743 875.324,162.047 1663.09,162.047 2188.27,1250.85 1663.09,1302.7 977.442,1416.76 "></polyline>
<polyline clip-path="url(#clip262)" style="stroke:#c4b0d5; stroke-linecap:round; stroke-linejoin:round; stroke-width:4; stroke-opacity:1; fill:none" points="933.678,1199 751.324,784.221 831.559,431.656 1152.5,162.047 1663.09,162.047 1830.86,1001.98 1553.68,1064.2 1225.44,1157.53 "></polyline>
<polyline clip-path="url(#clip262)" style="stroke:#c4b0d5; stroke-linecap:round; stroke-linejoin:round; stroke-width:4; stroke-opacity:1; fill:none" points="860.736,1302.7 612.735,846.438 707.559,421.286 1043.09,162.047 1663.09,162.047 1947.57,1147.16 1590.15,1209.37 1218.15,1281.96 "></polyline>
<polyline clip-path="url(#clip262)" style="stroke:#c4b0d5; stroke-linecap:round; stroke-linejoin:round; stroke-width:4; stroke-opacity:1; fill:none" points="765.912,1364.92 510.616,887.917 620.029,400.547 977.442,162.047 1663.09,162.047 2020.51,1136.79 1604.74,1240.48 1181.68,1333.81 "></polyline>
<polyline clip-path="url(#clip262)" style="stroke:#c4b0d5; stroke-linecap:round; stroke-linejoin:round; stroke-width:4; stroke-opacity:1; fill:none" points="707.559,1354.55 481.44,836.069 598.146,379.808 970.148,162.047 1663.09,162.047 2108.04,1188.63 1648.5,1271.59 1167.09,1364.92 "></polyline>
<polyline clip-path="url(#clip262)" style="stroke:#c4b0d5; stroke-linecap:round; stroke-linejoin:round; stroke-width:4; stroke-opacity:1; fill:none" points="612.735,1313.07 423.086,794.59 539.793,317.59 926.383,162.047 1663.09,162.047 2122.63,1219.74 1633.92,1313.07 1108.74,1375.29 "></polyline>
<polyline clip-path="url(#clip262)" style="stroke:#c4b0d5; stroke-linecap:round; stroke-linejoin:round; stroke-width:4; stroke-opacity:1; fill:none" points="539.793,1385.66 342.851,877.547 525.205,317.59 919.089,162.047 1663.09,162.047 2195.57,1240.48 1663.09,1323.44 1072.27,1406.39 "></polyline>
<polyline clip-path="url(#clip262)" style="stroke:#c4b0d5; stroke-linecap:round; stroke-linejoin:round; stroke-width:4; stroke-opacity:1; fill:none" points="466.851,1416.76 299.086,877.547 452.263,286.482 904.501,162.047 1663.09,162.047 2239.33,1240.48 1692.27,1323.44 1035.8,1416.76 "></polyline>
<polyline clip-path="url(#clip262)" style="stroke:#c4b0d5; stroke-linecap:round; stroke-linejoin:round; stroke-width:4; stroke-opacity:1; fill:none" points="386.616,1406.39 211.556,887.917 364.733,255.373 853.442,162.047 1663.09,162.047 2253.92,1250.85 1692.27,1323.44 970.148,1447.87 "></polyline>
<polyline clip-path="url(#clip262)" style="stroke:#8b564a; stroke-linecap:round; stroke-linejoin:round; stroke-width:4; stroke-opacity:1; fill:none" points="911.795,1167.89 765.912,732.373 846.148,410.916 1130.62,162.047 1663.09,162.047 1838.15,1012.35 1531.8,1053.83 1210.86,1105.68 "></polyline>
<polyline clip-path="url(#clip262)" style="stroke:#8b564a; stroke-linecap:round; stroke-linejoin:round; stroke-width:4; stroke-opacity:1; fill:none" points="853.442,1323.44 634.617,815.33 729.441,452.395 1043.09,162.047 1663.09,162.047 1969.45,1126.42 1648.5,1209.37 1225.44,1271.59 "></polyline>
<polyline clip-path="url(#clip262)" style="stroke:#8b564a; stroke-linecap:round; stroke-linejoin:round; stroke-width:4; stroke-opacity:1; fill:none" points="795.089,1333.81 583.558,877.547 649.205,421.286 1013.91,162.047 1663.09,162.047 2020.51,1157.53 1641.21,1230.11 1218.15,1302.7 "></polyline>
<polyline clip-path="url(#clip262)" style="stroke:#8b564a; stroke-linecap:round; stroke-linejoin:round; stroke-width:4; stroke-opacity:1; fill:none" points="751.324,1323.44 525.205,846.438 634.617,348.699 955.56,162.047 1663.09,162.047 2086.15,1167.89 1663.09,1240.48 1203.56,1323.44 "></polyline>
<polyline clip-path="url(#clip262)" style="stroke:#8b564a; stroke-linecap:round; stroke-linejoin:round; stroke-width:4; stroke-opacity:1; fill:none" points="692.97,1323.44 496.028,825.699 620.029,327.96 962.854,162.047 1663.09,162.047 2129.92,1167.89 1684.98,1230.11 1188.97,1344.18 "></polyline>
<polyline clip-path="url(#clip262)" style="stroke:#8b564a; stroke-linecap:round; stroke-linejoin:round; stroke-width:4; stroke-opacity:1; fill:none" points="547.087,1364.92 386.616,856.808 554.381,307.221 940.972,162.047 1663.09,162.047 2166.39,1209.37 1663.09,1313.07 1079.56,1427.13 "></polyline>
<polyline clip-path="url(#clip262)" style="stroke:#8b564a; stroke-linecap:round; stroke-linejoin:round; stroke-width:4; stroke-opacity:1; fill:none" points="459.557,1364.92 299.086,846.438 488.734,265.743 911.795,162.047 1663.09,162.047 2173.68,1209.37 1670.39,1302.7 1035.8,1406.39 "></polyline>
<polyline clip-path="url(#clip262)" style="stroke:#8b564a; stroke-linecap:round; stroke-linejoin:round; stroke-width:4; stroke-opacity:1; fill:none" points="437.675,1375.29 262.615,836.069 423.086,234.634 904.501,162.047 1663.09,162.047 2239.33,1209.37 1692.27,1250.85 1006.62,1396.03 "></polyline>
</svg>