<svg xmlns="http://www.w3.org/2000/svg" xmlns:xlink="http://www.w3.org/1999/xlink" width="600" height="400" viewBox="0 0 2400 1600">
<defs>
  <clipPath id="clip220">
    <rect x="0" y="0" width="2400" height="1600"></rect>
  </clipPath>
</defs>
<path clip-path="url(#clip220)" d="M0 1600 L2400 1600 L2400 0 L0 0  Z" fill="#ffffff" fill-rule="evenodd" fill-opacity="1"></path>
<defs>
  <clipPath id="clip221">
    <rect x="480" y="0" width="1681" height="1600"></rect>
  </clipPath>
</defs>
<path clip-path="url(#clip220)" d="M148.057 1486.45 L2352.76 1486.45 L2352.76 123.472 L148.057 123.472  Z" fill="#ffffff" fill-rule="evenodd" fill-opacity="1"></path>
<defs>
  <clipPath id="clip222">
    <rect x="148" y="123" width="2206" height="1364"></rect>
  </clipPath>
</defs>
<polyline clip-path="url(#clip222)" style="stroke:#000000; stroke-linecap:round; stroke-linejoin:round; stroke-width:2; stroke-opacity:0.1; fill:none" points="489.505,1486.45 489.505,123.472 "></polyline>
<polyline clip-path="url(#clip222)" style="stroke:#000000; stroke-linecap:round; stroke-linejoin:round; stroke-width:2; stroke-opacity:0.1; fill:none" points="938.439,1486.45 938.439,123.472 "></polyline>
<polyline clip-path="url(#clip222)" style="stroke:#000000; stroke-linecap:round; stroke-linejoin:round; stroke-width:2; stroke-opacity:0.1; fill:none" points="1387.37,1486.45 1387.37,123.472 "></polyline>
<polyline clip-path="url(#clip222)" style="stroke:#000000; stroke-linecap:round; stroke-linejoin:round; stroke-width:2; stroke-opacity:0.1; fill:none" points="1836.31,1486.45 1836.31,123.472 "></polyline>
<polyline clip-path="url(#clip222)" style="stroke:#000000; stroke-linecap:round; stroke-linejoin:round; stroke-width:2; stroke-opacity:0.1; fill:none" points="2285.24,1486.45 2285.24,123.472 "></polyline>
<polyline clip-path="url(#clip220)" style="stroke:#000000; stroke-linecap:round; stroke-linejoin:round; stroke-width:4; stroke-opacity:1; fill:none" points="148.057,1486.45 2352.76,1486.45 "></polyline>
<polyline clip-path="url(#clip220)" style="stroke:#000000; stroke-linecap:round; stroke-linejoin:round; stroke-width:4; stroke-opacity:1; fill:none" points="489.505,1486.45 489.505,1467.55 "></polyline>
<polyline clip-path="url(#clip220)" style="stroke:#000000; stroke-linecap:round; stroke-linejoin:round; stroke-width:4; stroke-opacity:1; fill:none" points="938.439,1486.45 938.439,1467.55 "></polyline>
<polyline clip-path="url(#clip220)" style="stroke:#000000; stroke-linecap:round; stroke-linejoin:round; stroke-width:4; stroke-opacity:1; fill:none" points="1387.37,1486.45 1387.37,1467.55 "></polyline>
<polyline clip-path="url(#clip220)" style="stroke:#000000; stroke-linecap:round; stroke-linejoin:round; stroke-width:4; stroke-opacity:1; fill:none" points="1836.31,1486.45 1836.31,1467.55 "></polyline>
<polyline clip-path="url(#clip220)" style="stroke:#000000; stroke-linecap:round; stroke-linejoin:round; stroke-width:4; stroke-opacity:1; fill:none" points="2285.24,1486.45 2285.24,1467.55 "></polyline>
<path clip-path="url(#clip220)" d="M466.889 1517.37 Q463.278 1517.37 461.449 1520.93 Q459.644 1524.47 459.644 1531.6 Q459.644 1538.71 461.449 1542.27 Q463.278 1545.82 466.889 1545.82 Q470.523 1545.82 472.329 1542.27 Q474.158 1538.71 474.158 1531.6 Q474.158 1524.47 472.329 1520.93 Q470.523 1517.37 466.889 1517.37 M466.889 1513.66 Q472.699 1513.66 475.755 1518.27 Q478.834 1522.85 478.834 1531.6 Q478.834 1540.33 475.755 1544.94 Q472.699 1549.52 466.889 1549.52 Q461.079 1549.52 458 1544.94 Q454.945 1540.33 454.945 1531.6 Q454.945 1522.85 458 1518.27 Q461.079 1513.66 466.889 1513.66 Z" fill="#000000" fill-rule="evenodd" fill-opacity="1"></path><path clip-path="url(#clip220)" d="M487.051 1542.97 L491.935 1542.97 L491.935 1548.85 L487.051 1548.85 L487.051 1542.97 Z" fill="#000000" fill-rule="evenodd" fill-opacity="1"></path><path clip-path="url(#clip220)" d="M512.12 1517.37 Q508.509 1517.37 506.681 1520.93 Q504.875 1524.47 504.875 1531.6 Q504.875 1538.71 506.681 1542.27 Q508.509 1545.82 512.12 1545.82 Q515.755 1545.82 517.56 1542.27 Q519.389 1538.71 519.389 1531.6 Q519.389 1524.47 517.56 1520.93 Q515.755 1517.37 512.12 1517.37 M512.12 1513.66 Q517.931 1513.66 520.986 1518.27 Q524.065 1522.85 524.065 1531.6 Q524.065 1540.33 520.986 1544.94 Q517.931 1549.52 512.12 1549.52 Q506.31 1549.52 503.232 1544.94 Q500.176 1540.33 500.176 1531.6 Q500.176 1522.85 503.232 1518.27 Q506.31 1513.66 512.12 1513.66 Z" fill="#000000" fill-rule="evenodd" fill-opacity="1"></path><path clip-path="url(#clip220)" d="M910.175 1544.91 L926.494 1544.91 L926.494 1548.85 L904.55 1548.85 L904.55 1544.91 Q907.212 1542.16 911.795 1537.53 Q916.402 1532.88 917.582 1531.53 Q919.828 1529.01 920.707 1527.27 Q921.61 1525.51 921.61 1523.82 Q921.61 1521.07 919.666 1519.33 Q917.744 1517.6 914.642 1517.6 Q912.443 1517.6 909.99 1518.36 Q907.559 1519.13 904.781 1520.68 L904.781 1515.95 Q907.605 1514.82 910.059 1514.24 Q912.513 1513.66 914.55 1513.66 Q919.92 1513.66 923.115 1516.35 Q926.309 1519.03 926.309 1523.52 Q926.309 1525.65 925.499 1527.57 Q924.712 1529.47 922.605 1532.07 Q922.027 1532.74 918.925 1535.95 Q915.823 1539.15 910.175 1544.91 Z" fill="#000000" fill-rule="evenodd" fill-opacity="1"></path><path clip-path="url(#clip220)" d="M936.309 1542.97 L941.193 1542.97 L941.193 1548.85 L936.309 1548.85 L936.309 1542.97 Z" fill="#000000" fill-rule="evenodd" fill-opacity="1"></path><path clip-path="url(#clip220)" d="M951.425 1514.29 L969.781 1514.29 L969.781 1518.22 L955.707 1518.22 L955.707 1526.7 Q956.726 1526.35 957.744 1526.19 Q958.763 1526 959.781 1526 Q965.568 1526 968.948 1529.17 Q972.327 1532.34 972.327 1537.76 Q972.327 1543.34 968.855 1546.44 Q965.383 1549.52 959.064 1549.52 Q956.888 1549.52 954.619 1549.15 Q952.374 1548.78 949.966 1548.04 L949.966 1543.34 Q952.05 1544.47 954.272 1545.03 Q956.494 1545.58 958.971 1545.58 Q962.976 1545.58 965.314 1543.48 Q967.651 1541.37 967.651 1537.76 Q967.651 1534.15 965.314 1532.04 Q962.976 1529.94 958.971 1529.94 Q957.096 1529.94 955.221 1530.35 Q953.369 1530.77 951.425 1531.65 L951.425 1514.29 Z" fill="#000000" fill-rule="evenodd" fill-opacity="1"></path><path clip-path="url(#clip220)" d="M1354.54 1514.29 L1372.89 1514.29 L1372.89 1518.22 L1358.82 1518.22 L1358.82 1526.7 Q1359.84 1526.35 1360.86 1526.19 Q1361.87 1526 1362.89 1526 Q1368.68 1526 1372.06 1529.17 Q1375.44 1532.34 1375.44 1537.76 Q1375.44 1543.34 1371.97 1546.44 Q1368.5 1549.52 1362.18 1549.52 Q1360 1549.52 1357.73 1549.15 Q1355.49 1548.78 1353.08 1548.04 L1353.08 1543.34 Q1355.16 1544.47 1357.38 1545.03 Q1359.61 1545.58 1362.08 1545.58 Q1366.09 1545.58 1368.43 1543.48 Q1370.76 1541.37 1370.76 1537.76 Q1370.76 1534.15 1368.43 1532.04 Q1366.09 1529.94 1362.08 1529.94 Q1360.21 1529.94 1358.33 1530.35 Q1356.48 1530.77 1354.54 1531.65 L1354.54 1514.29 Z" fill="#000000" fill-rule="evenodd" fill-opacity="1"></path><path clip-path="url(#clip220)" d="M1384.65 1542.97 L1389.54 1542.97 L1389.54 1548.85 L1384.65 1548.85 L1384.65 1542.97 Z" fill="#000000" fill-rule="evenodd" fill-opacity="1"></path><path clip-path="url(#clip220)" d="M1409.72 1517.37 Q1406.11 1517.37 1404.28 1520.93 Q1402.48 1524.47 1402.48 1531.6 Q1402.48 1538.71 1404.28 1542.27 Q1406.11 1545.82 1409.72 1545.82 Q1413.36 1545.82 1415.16 1542.27 Q1416.99 1538.71 1416.99 1531.6 Q1416.99 1524.47 1415.16 1520.93 Q1413.36 1517.37 1409.72 1517.37 M1409.72 1513.66 Q1415.53 1513.66 1418.59 1518.27 Q1421.67 1522.85 1421.67 1531.6 Q1421.67 1540.33 1418.59 1544.94 Q1415.53 1549.52 1409.72 1549.52 Q1403.91 1549.52 1400.83 1544.94 Q1397.78 1540.33 1397.78 1531.6 Q1397.78 1522.85 1400.83 1518.27 Q1403.91 1513.66 1409.72 1513.66 Z" fill="#000000" fill-rule="evenodd" fill-opacity="1"></path><path clip-path="url(#clip220)" d="M1802.63 1514.29 L1824.85 1514.29 L1824.85 1516.28 L1812.3 1548.85 L1807.42 1548.85 L1819.22 1518.22 L1802.63 1518.22 L1802.63 1514.29 Z" fill="#000000" fill-rule="evenodd" fill-opacity="1"></path><path clip-path="url(#clip220)" d="M1833.97 1542.97 L1838.85 1542.97 L1838.85 1548.85 L1833.97 1548.85 L1833.97 1542.97 Z" fill="#000000" fill-rule="evenodd" fill-opacity="1"></path><path clip-path="url(#clip220)" d="M1849.08 1514.29 L1867.44 1514.29 L1867.44 1518.22 L1853.37 1518.22 L1853.37 1526.7 Q1854.38 1526.35 1855.4 1526.19 Q1856.42 1526 1857.44 1526 Q1863.23 1526 1866.61 1529.17 Q1869.99 1532.34 1869.99 1537.76 Q1869.99 1543.34 1866.51 1546.44 Q1863.04 1549.52 1856.72 1549.52 Q1854.55 1549.52 1852.28 1549.15 Q1850.03 1548.78 1847.63 1548.04 L1847.63 1543.34 Q1849.71 1544.47 1851.93 1545.03 Q1854.15 1545.58 1856.63 1545.58 Q1860.63 1545.58 1862.97 1543.48 Q1865.31 1541.37 1865.31 1537.76 Q1865.31 1534.15 1862.97 1532.04 Q1860.63 1529.94 1856.63 1529.94 Q1854.76 1529.94 1852.88 1530.35 Q1851.03 1530.77 1849.08 1531.65 L1849.08 1514.29 Z" fill="#000000" fill-rule="evenodd" fill-opacity="1"></path><path clip-path="url(#clip220)" d="M2237.31 1544.91 L2244.95 1544.91 L2244.95 1518.55 L2236.64 1520.21 L2236.64 1515.95 L2244.9 1514.29 L2249.58 1514.29 L2249.58 1544.91 L2257.22 1544.91 L2257.22 1548.85 L2237.31 1548.85 L2237.31 1544.91 Z" fill="#000000" fill-rule="evenodd" fill-opacity="1"></path><path clip-path="url(#clip220)" d="M2276.66 1517.37 Q2273.05 1517.37 2271.22 1520.93 Q2269.42 1524.47 2269.42 1531.6 Q2269.42 1538.71 2271.22 1542.27 Q2273.05 1545.82 2276.66 1545.82 Q2280.3 1545.82 2282.1 1542.27 Q2283.93 1538.71 2283.93 1531.6 Q2283.93 1524.47 2282.1 1520.93 Q2280.3 1517.37 2276.66 1517.37 M2276.66 1513.66 Q2282.47 1513.66 2285.53 1518.27 Q2288.61 1522.85 2288.61 1531.6 Q2288.61 1540.33 2285.53 1544.94 Q2282.47 1549.52 2276.66 1549.52 Q2270.85 1549.52 2267.77 1544.94 Q2264.72 1540.33 2264.72 1531.6 Q2264.72 1522.85 2267.77 1518.27 Q2270.85 1513.66 2276.66 1513.66 Z" fill="#000000" fill-rule="evenodd" fill-opacity="1"></path><path clip-path="url(#clip220)" d="M2296.83 1542.97 L2301.71 1542.97 L2301.71 1548.85 L2296.83 1548.85 L2296.83 1542.97 Z" fill="#000000" fill-rule="evenodd" fill-opacity="1"></path><path clip-path="url(#clip220)" d="M2321.89 1517.37 Q2318.28 1517.37 2316.46 1520.93 Q2314.65 1524.47 2314.65 1531.6 Q2314.65 1538.71 2316.46 1542.27 Q2318.28 1545.82 2321.89 1545.82 Q2325.53 1545.82 2327.33 1542.27 Q2329.16 1538.71 2329.16 1531.6 Q2329.16 1524.47 2327.33 1520.93 Q2325.53 1517.37 2321.89 1517.37 M2321.89 1513.66 Q2327.71 1513.66 2330.76 1518.27 Q2333.84 1522.85 2333.84 1531.6 Q2333.84 1540.33 2330.76 1544.94 Q2327.71 1549.52 2321.89 1549.52 Q2316.08 1549.52 2313.01 1544.94 Q2309.95 1540.33 2309.95 1531.6 Q2309.95 1522.85 2313.01 1518.27 Q2316.08 1513.66 2321.89 1513.66 Z" fill="#000000" fill-rule="evenodd" fill-opacity="1"></path><polyline clip-path="url(#clip222)" style="stroke:#000000; stroke-linecap:round; stroke-linejoin:round; stroke-width:2; stroke-opacity:0.1; fill:none" points="148.057,1417.81 2352.76,1417.81 "></polyline>
<polyline clip-path="url(#clip222)" style="stroke:#000000; stroke-linecap:round; stroke-linejoin:round; stroke-width:2; stroke-opacity:0.1; fill:none" points="148.057,1225.5 2352.76,1225.5 "></polyline>
<polyline clip-path="url(#clip222)" style="stroke:#000000; stroke-linecap:round; stroke-linejoin:round; stroke-width:2; stroke-opacity:0.1; fill:none" points="148.057,1033.19 2352.76,1033.19 "></polyline>
<polyline clip-path="url(#clip222)" style="stroke:#000000; stroke-linecap:round; stroke-linejoin:round; stroke-width:2; stroke-opacity:0.1; fill:none" points="148.057,840.877 2352.76,840.877 "></polyline>
<polyline clip-path="url(#clip222)" style="stroke:#000000; stroke-linecap:round; stroke-linejoin:round; stroke-width:2; stroke-opacity:0.1; fill:none" points="148.057,648.566 2352.76,648.566 "></polyline>
<polyline clip-path="url(#clip222)" style="stroke:#000000; stroke-linecap:round; stroke-linejoin:round; stroke-width:2; stroke-opacity:0.1; fill:none" points="148.057,456.256 2352.76,456.256 "></polyline>
<polyline clip-path="url(#clip222)" style="stroke:#000000; stroke-linecap:round; stroke-linejoin:round; stroke-width:2; stroke-opacity:0.1; fill:none" points="148.057,263.945 2352.76,263.945 "></polyline>
<polyline clip-path="url(#clip220)" style="stroke:#000000; stroke-linecap:round; stroke-linejoin:round; stroke-width:4; stroke-opacity:1; fill:none" points="148.057,1486.45 148.057,123.472 "></polyline>
<polyline clip-path="url(#clip220)" style="stroke:#000000; stroke-linecap:round; stroke-linejoin:round; stroke-width:4; stroke-opacity:1; fill:none" points="148.057,1417.81 166.954,1417.81 "></polyline>
<polyline clip-path="url(#clip220)" style="stroke:#000000; stroke-linecap:round; stroke-linejoin:round; stroke-width:4; stroke-opacity:1; fill:none" points="148.057,1225.5 166.954,1225.5 "></polyline>
<polyline clip-path="url(#clip220)" style="stroke:#000000; stroke-linecap:round; stroke-linejoin:round; stroke-width:4; stroke-opacity:1; fill:none" points="148.057,1033.19 166.954,1033.19 "></polyline>
<polyline clip-path="url(#clip220)" style="stroke:#000000; stroke-linecap:round; stroke-linejoin:round; stroke-width:4; stroke-opacity:1; fill:none" points="148.057,840.877 166.954,840.877 "></polyline>
<polyline clip-path="url(#clip220)" style="stroke:#000000; stroke-linecap:round; stroke-linejoin:round; stroke-width:4; stroke-opacity:1; fill:none" points="148.057,648.566 166.954,648.566 "></polyline>
<polyline clip-path="url(#clip220)" style="stroke:#000000; stroke-linecap:round; stroke-linejoin:round; stroke-width:4; stroke-opacity:1; fill:none" points="148.057,456.256 166.954,456.256 "></polyline>
<polyline clip-path="url(#clip220)" style="stroke:#000000; stroke-linecap:round; stroke-linejoin:round; stroke-width:4; stroke-opacity:1; fill:none" points="148.057,263.945 166.954,263.945 "></polyline>
<path clip-path="url(#clip220)" d="M50.9921 1418.26 L80.6679 1418.26 L80.6679 1422.2 L50.9921 1422.2 L50.9921 1418.26 Z" fill="#000000" fill-rule="evenodd" fill-opacity="1"></path><path clip-path="url(#clip220)" d="M104.927 1416.45 Q108.283 1417.17 110.158 1419.44 Q112.057 1421.71 112.057 1425.04 Q112.057 1430.16 108.538 1432.96 Q105.02 1435.76 98.5382 1435.76 Q96.3623 1435.76 94.0475 1435.32 Q91.7558 1434.9 89.3021 1434.05 L89.3021 1429.53 Q91.2465 1430.67 93.5613 1431.25 Q95.8761 1431.82 98.3993 1431.82 Q102.797 1431.82 105.089 1430.09 Q107.404 1428.35 107.404 1425.04 Q107.404 1421.99 105.251 1420.27 Q103.121 1418.54 99.3021 1418.54 L95.2743 1418.54 L95.2743 1414.7 L99.4872 1414.7 Q102.936 1414.7 104.765 1413.33 Q106.594 1411.94 106.594 1409.35 Q106.594 1406.69 104.696 1405.27 Q102.821 1403.84 99.3021 1403.84 Q97.3808 1403.84 95.1817 1404.26 Q92.9826 1404.67 90.3438 1405.55 L90.3438 1401.38 Q93.0058 1400.64 95.3206 1400.27 Q97.6585 1399.9 99.7187 1399.9 Q105.043 1399.9 108.145 1402.33 Q111.246 1404.74 111.246 1408.86 Q111.246 1411.73 109.603 1413.72 Q107.959 1415.69 104.927 1416.45 Z" fill="#000000" fill-rule="evenodd" fill-opacity="1"></path><path clip-path="url(#clip220)" d="M51.9412 1225.95 L81.617 1225.95 L81.617 1229.88 L51.9412 1229.88 L51.9412 1225.95 Z" fill="#000000" fill-rule="evenodd" fill-opacity="1"></path><path clip-path="url(#clip220)" d="M95.7373 1238.84 L112.057 1238.84 L112.057 1242.78 L90.1123 1242.78 L90.1123 1238.84 Q92.7743 1236.09 97.3576 1231.46 Q101.964 1226.81 103.145 1225.46 Q105.39 1222.94 106.27 1221.2 Q107.172 1219.44 107.172 1217.75 Q107.172 1215 105.228 1213.26 Q103.307 1211.53 100.205 1211.53 Q98.0058 1211.53 95.5521 1212.29 Q93.1215 1213.06 90.3438 1214.61 L90.3438 1209.88 Q93.1678 1208.75 95.6215 1208.17 Q98.0752 1207.59 100.112 1207.59 Q105.483 1207.59 108.677 1210.28 Q111.871 1212.96 111.871 1217.45 Q111.871 1219.58 111.061 1221.5 Q110.274 1223.4 108.168 1226 Q107.589 1226.67 104.487 1229.88 Q101.385 1233.08 95.7373 1238.84 Z" fill="#000000" fill-rule="evenodd" fill-opacity="1"></path><path clip-path="url(#clip220)" d="M51.5708 1033.64 L81.2466 1033.64 L81.2466 1037.57 L51.5708 1037.57 L51.5708 1033.64 Z" fill="#000000" fill-rule="evenodd" fill-opacity="1"></path><path clip-path="url(#clip220)" d="M92.1493 1046.53 L99.7882 1046.53 L99.7882 1020.17 L91.478 1021.83 L91.478 1017.57 L99.7419 1015.91 L104.418 1015.91 L104.418 1046.53 L112.057 1046.53 L112.057 1050.47 L92.1493 1050.47 L92.1493 1046.53 Z" fill="#000000" fill-rule="evenodd" fill-opacity="1"></path><path clip-path="url(#clip220)" d="M100.112 826.676 Q96.5011 826.676 94.6724 830.24 Q92.8669 833.782 92.8669 840.912 Q92.8669 848.018 94.6724 851.583 Q96.5011 855.124 100.112 855.124 Q103.746 855.124 105.552 851.583 Q107.381 848.018 107.381 840.912 Q107.381 833.782 105.552 830.24 Q103.746 826.676 100.112 826.676 M100.112 822.972 Q105.922 822.972 108.978 827.578 Q112.057 832.162 112.057 840.912 Q112.057 849.638 108.978 854.245 Q105.922 858.828 100.112 858.828 Q94.3021 858.828 91.2234 854.245 Q88.1679 849.638 88.1679 840.912 Q88.1679 832.162 91.2234 827.578 Q94.3021 822.972 100.112 822.972 Z" fill="#000000" fill-rule="evenodd" fill-opacity="1"></path><path clip-path="url(#clip220)" d="M92.1493 661.911 L99.7882 661.911 L99.7882 635.546 L91.478 637.212 L91.478 632.953 L99.7419 631.286 L104.418 631.286 L104.418 661.911 L112.057 661.911 L112.057 665.846 L92.1493 665.846 L92.1493 661.911 Z" fill="#000000" fill-rule="evenodd" fill-opacity="1"></path><path clip-path="url(#clip220)" d="M95.7373 469.601 L112.057 469.601 L112.057 473.536 L90.1123 473.536 L90.1123 469.601 Q92.7743 466.846 97.3576 462.216 Q101.964 457.564 103.145 456.221 Q105.39 453.698 106.27 451.962 Q107.172 450.203 107.172 448.513 Q107.172 445.758 105.228 444.022 Q103.307 442.286 100.205 442.286 Q98.0058 442.286 95.5521 443.05 Q93.1215 443.814 90.3438 445.365 L90.3438 440.642 Q93.1678 439.508 95.6215 438.929 Q98.0752 438.351 100.112 438.351 Q105.483 438.351 108.677 441.036 Q111.871 443.721 111.871 448.212 Q111.871 450.341 111.061 452.263 Q110.274 454.161 108.168 456.753 Q107.589 457.425 104.487 460.642 Q101.385 463.837 95.7373 469.601 Z" fill="#000000" fill-rule="evenodd" fill-opacity="1"></path><path clip-path="url(#clip220)" d="M104.927 262.591 Q108.283 263.309 110.158 265.577 Q112.057 267.846 112.057 271.179 Q112.057 276.295 108.538 279.096 Q105.02 281.896 98.5382 281.896 Q96.3623 281.896 94.0475 281.457 Q91.7558 281.04 89.3021 280.183 L89.3021 275.67 Q91.2465 276.804 93.5613 277.383 Q95.8761 277.961 98.3993 277.961 Q102.797 277.961 105.089 276.225 Q107.404 274.489 107.404 271.179 Q107.404 268.123 105.251 266.41 Q103.121 264.674 99.3021 264.674 L95.2743 264.674 L95.2743 260.832 L99.4872 260.832 Q102.936 260.832 104.765 259.466 Q106.594 258.077 106.594 255.485 Q106.594 252.823 104.696 251.41 Q102.821 249.975 99.3021 249.975 Q97.3808 249.975 95.1817 250.392 Q92.9826 250.809 90.3438 251.688 L90.3438 247.522 Q93.0058 246.781 95.3206 246.411 Q97.6585 246.04 99.7187 246.04 Q105.043 246.04 108.145 248.471 Q111.246 250.878 111.246 254.998 Q111.246 257.869 109.603 259.86 Q107.959 261.827 104.927 262.591 Z" fill="#000000" fill-rule="evenodd" fill-opacity="1"></path><path clip-path="url(#clip220)" d="M971.866 14.0809 L971.866 22.0612 Q967.208 19.8332 963.076 18.7395 Q958.944 17.6457 955.095 17.6457 Q948.411 17.6457 944.766 20.2383 Q941.16 22.8309 941.16 27.611 Q941.16 31.6214 943.55 33.6873 Q945.981 35.7128 952.705 36.9686 L957.647 37.9813 Q966.802 39.7232 971.137 44.1387 Q975.512 48.5136 975.512 55.8863 Q975.512 64.6767 969.598 69.2137 Q963.724 73.7508 952.341 73.7508 Q948.047 73.7508 943.186 72.7785 Q938.365 71.8063 933.18 69.9024 L933.18 61.4765 Q938.163 64.2716 942.943 65.6895 Q947.723 67.1073 952.341 67.1073 Q959.349 67.1073 963.157 64.3527 Q966.964 61.598 966.964 56.4939 Q966.964 52.0379 964.21 49.5264 Q961.496 47.0148 955.257 45.759 L950.275 44.7868 Q941.12 42.9639 937.028 39.075 Q932.937 35.1862 932.937 28.2591 Q932.937 20.2383 938.568 15.6203 Q944.239 11.0023 954.164 11.0023 Q958.417 11.0023 962.833 11.7719 Q967.248 12.5416 971.866 14.0809 Z" fill="#000000" fill-rule="evenodd" fill-opacity="1"></path><path clip-path="url(#clip220)" d="M987.948 27.2059 L995.402 27.2059 L995.402 72.576 L987.948 72.576 L987.948 27.2059 M987.948 9.54393 L995.402 9.54393 L995.402 18.9825 L987.948 18.9825 L987.948 9.54393 Z" fill="#000000" fill-rule="evenodd" fill-opacity="1"></path><path clip-path="url(#clip220)" d="M1007.76 27.2059 L1043.16 27.2059 L1043.16 34.0114 L1015.13 66.6212 L1043.16 66.6212 L1043.16 72.576 L1006.74 72.576 L1006.74 65.7705 L1034.78 33.1607 L1007.76 33.1607 L1007.76 27.2059 Z" fill="#000000" fill-rule="evenodd" fill-opacity="1"></path><path clip-path="url(#clip220)" d="M1093.35 48.0275 L1093.35 51.6733 L1059.08 51.6733 Q1059.57 59.3701 1063.7 63.421 Q1067.87 67.4314 1075.29 67.4314 Q1079.58 67.4314 1083.59 66.3781 Q1087.64 65.3249 1091.61 63.2184 L1091.61 70.267 Q1087.6 71.9684 1083.39 72.8596 Q1079.17 73.7508 1074.84 73.7508 Q1063.98 73.7508 1057.62 67.4314 Q1051.3 61.1119 1051.3 50.3365 Q1051.3 39.1965 1057.3 32.6746 Q1063.34 26.1121 1073.54 26.1121 Q1082.7 26.1121 1088.01 32.0264 Q1093.35 37.9003 1093.35 48.0275 M1085.9 45.84 Q1085.82 39.7232 1082.46 36.0774 Q1079.13 32.4315 1073.62 32.4315 Q1067.39 32.4315 1063.62 35.9558 Q1059.89 39.4801 1059.33 45.8805 L1085.9 45.84 Z" fill="#000000" fill-rule="evenodd" fill-opacity="1"></path><path clip-path="url(#clip220)" d="M1152.5 20.1573 L1141.4 50.2555 L1163.64 50.2555 L1152.5 20.1573 M1147.88 12.096 L1157.15 12.096 L1180.2 72.576 L1171.7 72.576 L1166.19 57.061 L1138.93 57.061 L1133.42 72.576 L1124.79 72.576 L1147.88 12.096 Z" fill="#000000" fill-rule="evenodd" fill-opacity="1"></path><path clip-path="url(#clip220)" d="M1226.42 45.1919 L1226.42 72.576 L1218.97 72.576 L1218.97 45.4349 Q1218.97 38.994 1216.46 35.7938 Q1213.95 32.5936 1208.93 32.5936 Q1202.89 32.5936 1199.41 36.4419 Q1195.92 40.2903 1195.92 46.9338 L1195.92 72.576 L1188.43 72.576 L1188.43 27.2059 L1195.92 27.2059 L1195.92 34.2544 Q1198.6 30.163 1202.2 28.1376 Q1205.85 26.1121 1210.59 26.1121 Q1218.4 26.1121 1222.41 30.9732 Q1226.42 35.7938 1226.42 45.1919 Z" fill="#000000" fill-rule="evenodd" fill-opacity="1"></path><path clip-path="url(#clip220)" d="M1271.15 34.0924 L1271.15 9.54393 L1278.6 9.54393 L1278.6 72.576 L1271.15 72.576 L1271.15 65.7705 Q1268.8 69.8214 1265.19 71.8063 Q1261.63 73.7508 1256.6 73.7508 Q1248.38 73.7508 1243.2 67.1883 Q1238.05 60.6258 1238.05 49.9314 Q1238.05 39.2371 1243.2 32.6746 Q1248.38 26.1121 1256.6 26.1121 Q1261.63 26.1121 1265.19 28.0971 Q1268.8 30.0415 1271.15 34.0924 M1245.75 49.9314 Q1245.75 58.1548 1249.11 62.8538 Q1252.51 67.5124 1258.43 67.5124 Q1264.34 67.5124 1267.74 62.8538 Q1271.15 58.1548 1271.15 49.9314 Q1271.15 41.7081 1267.74 37.0496 Q1264.34 32.3505 1258.43 32.3505 Q1252.51 32.3505 1249.11 37.0496 Q1245.75 41.7081 1245.75 49.9314 Z" fill="#000000" fill-rule="evenodd" fill-opacity="1"></path><path clip-path="url(#clip220)" d="M1356.9 14.0809 L1356.9 22.0612 Q1352.25 19.8332 1348.11 18.7395 Q1343.98 17.6457 1340.13 17.6457 Q1333.45 17.6457 1329.8 20.2383 Q1326.2 22.8309 1326.2 27.611 Q1326.2 31.6214 1328.59 33.6873 Q1331.02 35.7128 1337.74 36.9686 L1342.69 37.9813 Q1351.84 39.7232 1356.18 44.1387 Q1360.55 48.5136 1360.55 55.8863 Q1360.55 64.6767 1354.64 69.2137 Q1348.76 73.7508 1337.38 73.7508 Q1333.09 73.7508 1328.22 72.7785 Q1323.4 71.8063 1318.22 69.9024 L1318.22 61.4765 Q1323.2 64.2716 1327.98 65.6895 Q1332.76 67.1073 1337.38 67.1073 Q1344.39 67.1073 1348.2 64.3527 Q1352 61.598 1352 56.4939 Q1352 52.0379 1349.25 49.5264 Q1346.53 47.0148 1340.3 45.759 L1335.31 44.7868 Q1326.16 42.9639 1322.07 39.075 Q1317.98 35.1862 1317.98 28.2591 Q1317.98 20.2383 1323.61 15.6203 Q1329.28 11.0023 1339.2 11.0023 Q1343.46 11.0023 1347.87 11.7719 Q1352.29 12.5416 1356.9 14.0809 Z" fill="#000000" fill-rule="evenodd" fill-opacity="1"></path><path clip-path="url(#clip220)" d="M1410.7 45.1919 L1410.7 72.576 L1403.25 72.576 L1403.25 45.4349 Q1403.25 38.994 1400.74 35.7938 Q1398.22 32.5936 1393.2 32.5936 Q1387.16 32.5936 1383.68 36.4419 Q1380.2 40.2903 1380.2 46.9338 L1380.2 72.576 L1372.7 72.576 L1372.7 9.54393 L1380.2 9.54393 L1380.2 34.2544 Q1382.87 30.163 1386.48 28.1376 Q1390.12 26.1121 1394.86 26.1121 Q1402.68 26.1121 1406.69 30.9732 Q1410.7 35.7938 1410.7 45.1919 Z" fill="#000000" fill-rule="evenodd" fill-opacity="1"></path><path clip-path="url(#clip220)" d="M1446.19 49.7694 Q1437.15 49.7694 1433.67 51.8354 Q1430.19 53.9013 1430.19 58.8839 Q1430.19 62.8538 1432.78 65.2034 Q1435.41 67.5124 1439.91 67.5124 Q1446.11 67.5124 1449.83 63.1374 Q1453.6 58.7219 1453.6 51.4303 L1453.6 49.7694 L1446.19 49.7694 M1461.05 46.6907 L1461.05 72.576 L1453.6 72.576 L1453.6 65.6895 Q1451.05 69.8214 1447.24 71.8063 Q1443.43 73.7508 1437.92 73.7508 Q1430.96 73.7508 1426.82 69.8619 Q1422.73 65.9325 1422.73 59.3701 Q1422.73 51.7138 1427.84 47.825 Q1432.98 43.9361 1443.15 43.9361 L1453.6 43.9361 L1453.6 43.2069 Q1453.6 38.0623 1450.2 35.2672 Q1446.83 32.4315 1440.72 32.4315 Q1436.83 32.4315 1433.14 33.3632 Q1429.46 34.295 1426.05 36.1584 L1426.05 29.2718 Q1430.14 27.692 1433.99 26.9223 Q1437.84 26.1121 1441.49 26.1121 Q1451.33 26.1121 1456.19 31.2163 Q1461.05 36.3204 1461.05 46.6907 Z" fill="#000000" fill-rule="evenodd" fill-opacity="1"></path><path clip-path="url(#clip220)" d="M1483.62 65.7705 L1483.62 89.8329 L1476.12 89.8329 L1476.12 27.2059 L1483.62 27.2059 L1483.62 34.0924 Q1485.97 30.0415 1489.53 28.0971 Q1493.14 26.1121 1498.12 26.1121 Q1506.38 26.1121 1511.53 32.6746 Q1516.71 39.2371 1516.71 49.9314 Q1516.71 60.6258 1511.53 67.1883 Q1506.38 73.7508 1498.12 73.7508 Q1493.14 73.7508 1489.53 71.8063 Q1485.97 69.8214 1483.62 65.7705 M1508.98 49.9314 Q1508.98 41.7081 1505.57 37.0496 Q1502.21 32.3505 1496.3 32.3505 Q1490.38 32.3505 1486.98 37.0496 Q1483.62 41.7081 1483.62 49.9314 Q1483.62 58.1548 1486.98 62.8538 Q1490.38 67.5124 1496.3 67.5124 Q1502.21 67.5124 1505.57 62.8538 Q1508.98 58.1548 1508.98 49.9314 Z" fill="#000000" fill-rule="evenodd" fill-opacity="1"></path><path clip-path="url(#clip220)" d="M1567.88 48.0275 L1567.88 51.6733 L1533.6 51.6733 Q1534.09 59.3701 1538.22 63.421 Q1542.4 67.4314 1549.81 67.4314 Q1554.1 67.4314 1558.11 66.3781 Q1562.16 65.3249 1566.13 63.2184 L1566.13 70.267 Q1562.12 71.9684 1557.91 72.8596 Q1553.7 73.7508 1549.36 73.7508 Q1538.51 73.7508 1532.15 67.4314 Q1525.83 61.1119 1525.83 50.3365 Q1525.83 39.1965 1531.82 32.6746 Q1537.86 26.1121 1548.07 26.1121 Q1557.22 26.1121 1562.53 32.0264 Q1567.88 37.9003 1567.88 48.0275 M1560.42 45.84 Q1560.34 39.7232 1556.98 36.0774 Q1553.66 32.4315 1548.15 32.4315 Q1541.91 32.4315 1538.14 35.9558 Q1534.42 39.4801 1533.85 45.8805 L1560.42 45.84 Z" fill="#000000" fill-rule="evenodd" fill-opacity="1"></path><polyline clip-path="url(#clip222)" style="stroke:#1f77b4; stroke-linecap:round; stroke-linejoin:round; stroke-width:4; stroke-opacity:1; fill:none" points="280.947,602.817 447.508,438.981 720.7,318.343 1194.09,362.055 1384.95,1104.22 938.537,1151.71 530.182,1240.79 "></polyline>
<polyline clip-path="url(#clip222)" style="stroke:#1f77b4; stroke-linecap:round; stroke-linejoin:round; stroke-width:4; stroke-opacity:1; fill:none" points="251.848,554.923 397.21,351.46 743.699,243.172 1322.2,279.016 1642.64,1062.45 1090.58,1185.18 588.715,1286.38 "></polyline>
<polyline clip-path="url(#clip222)" style="stroke:#1f77b4; stroke-linecap:round; stroke-linejoin:round; stroke-width:4; stroke-opacity:1; fill:none" points="269.316,553.198 358.971,333.939 746.208,224.075 1363.36,254.333 1796.64,1047.45 1139.29,1187.79 590.082,1297.65 "></polyline>
<polyline clip-path="url(#clip222)" style="stroke:#1f77b4; stroke-linecap:round; stroke-linejoin:round; stroke-width:4; stroke-opacity:1; fill:none" points="255.536,566.545 368.753,276.191 791.153,216.357 1415.3,254.999 1880.88,1057.34 1184.95,1202.56 581.366,1338.37 "></polyline>
<polyline clip-path="url(#clip222)" style="stroke:#1f77b4; stroke-linecap:round; stroke-linejoin:round; stroke-width:4; stroke-opacity:1; fill:none" points="263.187,541.921 437.688,262.343 844.761,229.032 1482.03,272.249 1974.84,1074.63 1231.07,1231.83 578.25,1370.33 "></polyline>
<polyline clip-path="url(#clip222)" style="stroke:#1f77b4; stroke-linecap:round; stroke-linejoin:round; stroke-width:4; stroke-opacity:1; fill:none" points="284.417,537.605 463.447,219.769 899.861,239.955 1549.34,284.098 2082.35,1091.94 1280.12,1255.85 544.181,1395.48 "></polyline>
<polyline clip-path="url(#clip222)" style="stroke:#1f77b4; stroke-linecap:round; stroke-linejoin:round; stroke-width:4; stroke-opacity:1; fill:none" points="300.363,519.261 517.225,222.588 981.231,270.086 1653.6,315.938 2156.84,1130.31 1337.66,1252.15 518.434,1416.26 "></polyline>
<polyline clip-path="url(#clip222)" style="stroke:#1f77b4; stroke-linecap:round; stroke-linejoin:round; stroke-width:4; stroke-opacity:1; fill:none" points="286.198,525.569 481.044,201.093 964.744,281.856 1646.48,301.862 2226.44,1099.35 1377.08,1253.95 496.749,1418.77 "></polyline>
<polyline clip-path="url(#clip222)" style="stroke:#a6c3e5; stroke-linecap:round; stroke-linejoin:round; stroke-width:4; stroke-opacity:1; fill:none" points="323.364,587.912 482.237,464.087 772.938,331.564 1238.83,428.73 1325.49,1164.33 882.118,1187.04 495.294,1205.78 "></polyline>
<polyline clip-path="url(#clip222)" style="stroke:#a6c3e5; stroke-linecap:round; stroke-linejoin:round; stroke-width:4; stroke-opacity:1; fill:none" points="249.189,622.11 335.968,430.636 734.678,242.299 1281.32,268.966 1651.56,1064.45 1072.74,1173.79 562.569,1252.49 "></polyline>
<polyline clip-path="url(#clip222)" style="stroke:#a6c3e5; stroke-linecap:round; stroke-linejoin:round; stroke-width:4; stroke-opacity:1; fill:none" points="250.798,581.136 367.526,355.672 745.213,228.47 1403.51,260.285 1790.55,1073.2 1147.62,1192.59 561.196,1292.04 "></polyline>
<polyline clip-path="url(#clip222)" style="stroke:#a6c3e5; stroke-linecap:round; stroke-linejoin:round; stroke-width:4; stroke-opacity:1; fill:none" points="248.182,573.952 364.365,349.88 748.521,245.577 1418.81,249.002 1871.37,1046.81 1205.2,1195.36 573.723,1316.94 "></polyline>
<polyline clip-path="url(#clip222)" style="stroke:#a6c3e5; stroke-linecap:round; stroke-linejoin:round; stroke-width:4; stroke-opacity:1; fill:none" points="292.237,543.372 423.117,279.871 802.395,266.459 1501.65,268.11 1956.68,1075.13 1210.84,1233.09 561.406,1354.25 "></polyline>
<polyline clip-path="url(#clip222)" style="stroke:#a6c3e5; stroke-linecap:round; stroke-linejoin:round; stroke-width:4; stroke-opacity:1; fill:none" points="285.438,529.901 449.972,267.688 864.103,278.263 1565.91,278.742 2089.42,1091.51 1263.36,1244.64 518.477,1402.72 "></polyline>
<polyline clip-path="url(#clip222)" style="stroke:#a6c3e5; stroke-linecap:round; stroke-linejoin:round; stroke-width:4; stroke-opacity:1; fill:none" points="314.432,523.375 462.285,250.56 925.14,298.067 1638.54,301.662 2148.07,1119.11 1314.36,1223.34 502.988,1392.67 "></polyline>
<polyline clip-path="url(#clip222)" style="stroke:#a6c3e5; stroke-linecap:round; stroke-linejoin:round; stroke-width:4; stroke-opacity:1; fill:none" points="293.005,542.789 479.236,246.939 971.884,324.23 1680.9,307.372 2218.36,1116.62 1366.47,1223.19 504.77,1375.18 "></polyline>
<polyline clip-path="url(#clip222)" style="stroke:#f68623; stroke-linecap:round; stroke-linejoin:round; stroke-width:4; stroke-opacity:1; fill:none" points="312.081,616.294 433.171,452.67 760.586,327.019 1257.98,374.245 1405.26,1148.96 927.703,1169.37 515.942,1223.05 "></polyline>
<polyline clip-path="url(#clip222)" style="stroke:#f68623; stroke-linecap:round; stroke-linejoin:round; stroke-width:4; stroke-opacity:1; fill:none" points="257.771,594.811 383.587,353.494 756.513,233.493 1364.1,267.969 1632.74,1105.33 1072.53,1213.09 569.237,1282.96 "></polyline>
<polyline clip-path="url(#clip222)" style="stroke:#f68623; stroke-linecap:round; stroke-linejoin:round; stroke-width:4; stroke-opacity:1; fill:none" points="214.116,582.908 350.376,321.218 743.625,219.623 1381.96,226.101 1757.54,1073.62 1139.27,1190.94 576.323,1308.52 "></polyline>
<polyline clip-path="url(#clip222)" style="stroke:#f68623; stroke-linecap:round; stroke-linejoin:round; stroke-width:4; stroke-opacity:1; fill:none" points="217.42,558.861 369.138,310.151 758.665,237.82 1422.8,220.335 1878.52,1060.46 1195.19,1198.17 578.113,1334.25 "></polyline>
<polyline clip-path="url(#clip222)" style="stroke:#f68623; stroke-linecap:round; stroke-linejoin:round; stroke-width:4; stroke-opacity:1; fill:none" points="277.683,524.376 400.059,299.659 787.901,222.809 1469.91,208.252 1961.09,1089.23 1228.29,1208.85 590.898,1352.55 "></polyline>
<polyline clip-path="url(#clip222)" style="stroke:#f68623; stroke-linecap:round; stroke-linejoin:round; stroke-width:4; stroke-opacity:1; fill:none" points="302.978,520.387 463.624,237.633 900.847,226.819 1570.41,241.758 2080.59,1142.45 1260.6,1260.69 525.886,1424.98 "></polyline>
<polyline clip-path="url(#clip222)" style="stroke:#f68623; stroke-linecap:round; stroke-linejoin:round; stroke-width:4; stroke-opacity:1; fill:none" points="302.946,513.063 467.731,201.454 925.357,241.364 1621.52,250.432 2135.11,1140.55 1336.68,1234.41 536.689,1436.11 "></polyline>
<polyline clip-path="url(#clip222)" style="stroke:#f68623; stroke-linecap:round; stroke-linejoin:round; stroke-width:4; stroke-opacity:1; fill:none" points="299.53,503.535 473.56,214.34 924.929,281.036 1633.86,257.255 2193.9,1112.15 1354.49,1267.44 499.927,1438.84 "></polyline>
<polyline clip-path="url(#clip222)" style="stroke:#ff7e0d; stroke-linecap:round; stroke-linejoin:round; stroke-width:4; stroke-opacity:1; fill:none" points="303.229,599.609 448.287,442.837 761.628,337.71 1276.12,394.952 1427.23,1144.27 927.565,1149.75 506.948,1215.93 "></polyline>
<polyline clip-path="url(#clip222)" style="stroke:#ff7e0d; stroke-linecap:round; stroke-linejoin:round; stroke-width:4; stroke-opacity:1; fill:none" points="278.942,594.781 393.774,376.271 765.907,233.822 1329.99,262.814 1621.75,1127.81 1082.38,1182.12 561.826,1257.9 "></polyline>
<polyline clip-path="url(#clip222)" style="stroke:#ff7e0d; stroke-linecap:round; stroke-linejoin:round; stroke-width:4; stroke-opacity:1; fill:none" points="244.318,578.021 370.317,341.475 761.555,214.463 1355.82,226.711 1751.61,1095.98 1130.36,1185.49 567.747,1297.11 "></polyline>
<polyline clip-path="url(#clip222)" style="stroke:#ff7e0d; stroke-linecap:round; stroke-linejoin:round; stroke-width:4; stroke-opacity:1; fill:none" points="232.736,571.526 362.496,314.734 786.45,227.19 1423.53,233.426 1864.25,1085.54 1176.9,1190.91 566.943,1314.23 "></polyline>
<polyline clip-path="url(#clip222)" style="stroke:#ff7e0d; stroke-linecap:round; stroke-linejoin:round; stroke-width:4; stroke-opacity:1; fill:none" points="279.484,545.623 419.998,312.162 840.179,240.174 1483.22,255.081 1956.53,1106 1212.66,1214.24 557.389,1357.53 "></polyline>
<polyline clip-path="url(#clip222)" style="stroke:#ff7e0d; stroke-linecap:round; stroke-linejoin:round; stroke-width:4; stroke-opacity:1; fill:none" points="283.795,531.145 461.425,265.519 876.65,256.549 1551.15,261.123 2038.82,1124.21 1248.08,1226.32 546.578,1374.93 "></polyline>
<polyline clip-path="url(#clip222)" style="stroke:#ff7e0d; stroke-linecap:round; stroke-linejoin:round; stroke-width:4; stroke-opacity:1; fill:none" points="303.986,538.396 489.213,222.972 935.606,272.14 1622.94,286.316 2106.24,1147.22 1285.93,1236.16 518.553,1387.73 "></polyline>
<polyline clip-path="url(#clip222)" style="stroke:#ff7e0d; stroke-linecap:round; stroke-linejoin:round; stroke-width:4; stroke-opacity:1; fill:none" points="293.253,513.067 517.918,202.573 1008.1,298.726 1678.73,304.044 2162.31,1157.97 1326.66,1257.36 479.608,1419.6 "></polyline>
<polyline clip-path="url(#clip222)" style="stroke:#ffb168; stroke-linecap:round; stroke-linejoin:round; stroke-width:4; stroke-opacity:1; fill:none" points="284.088,594.772 415.696,460.05 731.483,384.315 1223.6,390.18 1375.4,1089.34 915.632,1144.23 525.695,1208.26 "></polyline>
<polyline clip-path="url(#clip222)" style="stroke:#ffb168; stroke-linecap:round; stroke-linejoin:round; stroke-width:4; stroke-opacity:1; fill:none" points="265.02,590.615 363.355,425.353 735.055,261.048 1329.71,278.682 1575.64,1103.71 1044.89,1171.17 580.635,1249.4 "></polyline>
<polyline clip-path="url(#clip222)" style="stroke:#ffb168; stroke-linecap:round; stroke-linejoin:round; stroke-width:4; stroke-opacity:1; fill:none" points="243.335,552.604 357.538,400.433 724.15,240.84 1365.06,232.112 1735.65,1065.09 1129.39,1179.61 599.754,1281.32 "></polyline>
<polyline clip-path="url(#clip222)" style="stroke:#ffb168; stroke-linecap:round; stroke-linejoin:round; stroke-width:4; stroke-opacity:1; fill:none" points="246.781,553.986 358.185,368.793 729.591,255.639 1415.06,225.55 1831.59,1043.25 1200.65,1195.46 605.315,1312.58 "></polyline>
<polyline clip-path="url(#clip222)" style="stroke:#ffb168; stroke-linecap:round; stroke-linejoin:round; stroke-width:4; stroke-opacity:1; fill:none" points="235.713,560.286 375.914,333.091 734.473,284.418 1447.29,225.833 1929.45,1035.56 1226.16,1193.48 601.188,1346.06 "></polyline>
<polyline clip-path="url(#clip222)" style="stroke:#ffb168; stroke-linecap:round; stroke-linejoin:round; stroke-width:4; stroke-opacity:1; fill:none" points="267.201,517.72 416.585,276.567 825.499,256.8 1524.22,238.499 2008.13,1083.82 1262.77,1226.41 562.518,1381.69 "></polyline>
<polyline clip-path="url(#clip222)" style="stroke:#ffb168; stroke-linecap:round; stroke-linejoin:round; stroke-width:4; stroke-opacity:1; fill:none" points="281.866,532.25 483.822,236.606 921.024,247.958 1636.93,275.953 2074.44,1144.26 1287.14,1266.33 518.075,1413.15 "></polyline>
<polyline clip-path="url(#clip222)" style="stroke:#ffb168; stroke-linecap:round; stroke-linejoin:round; stroke-width:4; stroke-opacity:1; fill:none" points="306.787,510.591 462.634,218.879 938.849,257.503 1641.34,272.424 2130.69,1143.18 1294.62,1270.61 485.646,1432.71 "></polyline>
<polyline clip-path="url(#clip222)" style="stroke:#ffba78; stroke-linecap:round; stroke-linejoin:round; stroke-width:4; stroke-opacity:1; fill:none" points="331.989,601.697 455.123,469.691 766.712,327.709 1248.67,397.911 1357.73,1180.41 875.861,1165.78 510.482,1211.6 "></polyline>
<polyline clip-path="url(#clip222)" style="stroke:#ffba78; stroke-linecap:round; stroke-linejoin:round; stroke-width:4; stroke-opacity:1; fill:none" points="272.343,596.196 384.64,393.805 727.124,242.802 1291.88,270.177 1586.4,1098.47 1023.81,1189.95 562.358,1265.6 "></polyline>
<polyline clip-path="url(#clip222)" style="stroke:#ffba78; stroke-linecap:round; stroke-linejoin:round; stroke-width:4; stroke-opacity:1; fill:none" points="254.912,577.485 369.5,357.891 731.388,245.775 1339.4,243.961 1703.69,1068.98 1118.42,1178.63 583.3,1290 "></polyline>
<polyline clip-path="url(#clip222)" style="stroke:#ffba78; stroke-linecap:round; stroke-linejoin:round; stroke-width:4; stroke-opacity:1; fill:none" points="252.559,564.094 362.363,359.35 793.319,267.042 1395.28,258.917 1823.21,1075.04 1167.31,1176.24 562.781,1319.07 "></polyline>
<polyline clip-path="url(#clip222)" style="stroke:#ffba78; stroke-linecap:round; stroke-linejoin:round; stroke-width:4; stroke-opacity:1; fill:none" points="271.609,552.241 398.562,315.965 793.829,269.418 1412.19,261.727 1913.81,1064.95 1180.8,1195.46 556.955,1335.84 "></polyline>
<polyline clip-path="url(#clip222)" style="stroke:#ffba78; stroke-linecap:round; stroke-linejoin:round; stroke-width:4; stroke-opacity:1; fill:none" points="294.477,515.552 437.602,253.614 861.05,256.491 1499.42,267.934 2048.03,1085.85 1229.35,1243.19 530.304,1389.34 "></polyline>
<polyline clip-path="url(#clip222)" style="stroke:#ffba78; stroke-linecap:round; stroke-linejoin:round; stroke-width:4; stroke-opacity:1; fill:none" points="316.62,483.968 467.052,240.959 902.389,279.208 1555.58,283.848 2108.18,1098.44 1286.63,1241.91 514.226,1406.15 "></polyline>
<polyline clip-path="url(#clip222)" style="stroke:#ffba78; stroke-linecap:round; stroke-linejoin:round; stroke-width:4; stroke-opacity:1; fill:none" points="291.426,525.125 492.14,223.265 919.389,318.023 1582.61,297.907 2157.26,1093.7 1339.2,1246.46 473.363,1392.48 "></polyline>
<polyline clip-path="url(#clip222)" style="stroke:#56a53b; stroke-linecap:round; stroke-linejoin:round; stroke-width:4; stroke-opacity:1; fill:none" points="306.86,621.146 395.027,458.674 712.491,325.274 1195.07,361.449 1334.12,1109.32 912.753,1156.35 536.339,1198.44 "></polyline>
<polyline clip-path="url(#clip222)" style="stroke:#56a53b; stroke-linecap:round; stroke-linejoin:round; stroke-width:4; stroke-opacity:1; fill:none" points="284.379,599.421 408.405,364.876 765.051,253.344 1309.21,310.431 1558.52,1126.88 1026.2,1172.99 546.84,1269.68 "></polyline>
<polyline clip-path="url(#clip222)" style="stroke:#56a53b; stroke-linecap:round; stroke-linejoin:round; stroke-width:4; stroke-opacity:1; fill:none" points="267.165,578.109 395.916,348.257 780.315,258.155 1363.85,270.552 1734.54,1097.16 1121.3,1170.66 569.252,1294.26 "></polyline>
<polyline clip-path="url(#clip222)" style="stroke:#56a53b; stroke-linecap:round; stroke-linejoin:round; stroke-width:4; stroke-opacity:1; fill:none" points="255.42,569.114 375.088,328.59 785.041,277.178 1413.39,266.818 1829.16,1059.77 1184.2,1184.81 581.474,1303.54 "></polyline>
<polyline clip-path="url(#clip222)" style="stroke:#56a53b; stroke-linecap:round; stroke-linejoin:round; stroke-width:4; stroke-opacity:1; fill:none" points="271.866,540.256 421.268,300.017 823.79,276.037 1454.51,284.521 1918.26,1078.45 1206.42,1196.33 549.621,1325.03 "></polyline>
<polyline clip-path="url(#clip222)" style="stroke:#56a53b; stroke-linecap:round; stroke-linejoin:round; stroke-width:4; stroke-opacity:1; fill:none" points="286.936,525.025 501.564,238.118 873.48,272.945 1536.18,302.321 2028.98,1115.77 1255.19,1224.42 505.337,1357.93 "></polyline>
<polyline clip-path="url(#clip222)" style="stroke:#56a53b; stroke-linecap:round; stroke-linejoin:round; stroke-width:4; stroke-opacity:1; fill:none" points="295.196,519.057 474.581,252.828 934.027,300.473 1613.78,309.558 2116.43,1110.61 1275.36,1252.8 496.552,1367.57 "></polyline>
<polyline clip-path="url(#clip222)" style="stroke:#56a53b; stroke-linecap:round; stroke-linejoin:round; stroke-width:4; stroke-opacity:1; fill:none" points="320.59,500.839 489.648,227.377 980.2,314.22 1666.1,323.083 2163.27,1125.13 1305.68,1262.37 471.875,1378.37 "></polyline>
<polyline clip-path="url(#clip222)" style="stroke:#2ba02b; stroke-linecap:round; stroke-linejoin:round; stroke-width:4; stroke-opacity:1; fill:none" points="317.713,608.723 447.094,478.618 724.129,351.123 1229.75,393.048 1329.48,1135.48 889.368,1163.71 530.878,1194.05 "></polyline>
<polyline clip-path="url(#clip222)" style="stroke:#2ba02b; stroke-linecap:round; stroke-linejoin:round; stroke-width:4; stroke-opacity:1; fill:none" points="283.777,592.543 398.714,409.524 740.205,262.208 1337.87,311.741 1563.38,1112.77 1056.94,1175.46 544.505,1238.93 "></polyline>
<polyline clip-path="url(#clip222)" style="stroke:#2ba02b; stroke-linecap:round; stroke-linejoin:round; stroke-width:4; stroke-opacity:1; fill:none" points="262.461,595.527 387.327,377.001 733.224,243.06 1337.44,271.701 1670.01,1078.68 1102.52,1175.8 576.076,1293.41 "></polyline>
<polyline clip-path="url(#clip222)" style="stroke:#2ba02b; stroke-linecap:round; stroke-linejoin:round; stroke-width:4; stroke-opacity:1; fill:none" points="302.844,580.315 400.18,319.637 806.424,245.208 1414.29,245.963 1791.19,1113.36 1183.15,1214.41 552.588,1315.76 "></polyline>
<polyline clip-path="url(#clip222)" style="stroke:#2ba02b; stroke-linecap:round; stroke-linejoin:round; stroke-width:4; stroke-opacity:1; fill:none" points="289.675,552.865 433.775,297.595 807.73,273.968 1456.65,271.729 1866.51,1098.03 1188.9,1214.22 544.578,1345.64 "></polyline>
<polyline clip-path="url(#clip222)" style="stroke:#2ba02b; stroke-linecap:round; stroke-linejoin:round; stroke-width:4; stroke-opacity:1; fill:none" points="331.923,506.957 502.84,244.73 870.625,256.146 1532.77,279.375 1985.26,1157.04 1230.93,1219.88 507.667,1395.81 "></polyline>
<polyline clip-path="url(#clip222)" style="stroke:#2ba02b; stroke-linecap:round; stroke-linejoin:round; stroke-width:4; stroke-opacity:1; fill:none" points="365.034,492.811 545.171,222.456 937.158,264.273 1626.71,302.896 2058.34,1192.84 1267.03,1255.43 465.703,1407.11 "></polyline>
<polyline clip-path="url(#clip222)" style="stroke:#2ba02b; stroke-linecap:round; stroke-linejoin:round; stroke-width:4; stroke-opacity:1; fill:none" points="311.723,521.974 541.71,208.914 935.424,272.411 1647.79,292.289 2129.14,1176.24 1287.47,1256.41 461.628,1423.38 "></polyline>
<polyline clip-path="url(#clip222)" style="stroke:#7dcf72; stroke-linecap:round; stroke-linejoin:round; stroke-width:4; stroke-opacity:1; fill:none" points="301.724,605.915 447.079,450.943 753.311,332.239 1195.78,378.8 1399.61,1117.34 900.01,1159.08 535.776,1221.86 "></polyline>
<polyline clip-path="url(#clip222)" style="stroke:#7dcf72; stroke-linecap:round; stroke-linejoin:round; stroke-width:4; stroke-opacity:1; fill:none" points="235.175,619.065 367.22,399.678 713.968,270.62 1315.17,298.636 1537.63,1085.4 1022.79,1173.86 567.812,1242.92 "></polyline>
<polyline clip-path="url(#clip222)" style="stroke:#7dcf72; stroke-linecap:round; stroke-linejoin:round; stroke-width:4; stroke-opacity:1; fill:none" points="264.323,580.899 380.105,375.454 703.972,276.759 1350.78,267.58 1674.45,1045.75 1123.13,1185.72 591.431,1272.87 "></polyline>
<polyline clip-path="url(#clip222)" style="stroke:#7dcf72; stroke-linecap:round; stroke-linejoin:round; stroke-width:4; stroke-opacity:1; fill:none" points="237.781,555.959 425.938,350.717 742.801,287.463 1429.75,275.64 1789.68,1056.43 1162.77,1209.55 576.119,1306.03 "></polyline>
<polyline clip-path="url(#clip222)" style="stroke:#7dcf72; stroke-linecap:round; stroke-linejoin:round; stroke-width:4; stroke-opacity:1; fill:none" points="275.955,544.926 450.608,301.472 790.038,300.097 1464.15,272.386 1892.02,1076.1 1183.75,1229.3 555.318,1340.15 "></polyline>
<polyline clip-path="url(#clip222)" style="stroke:#7dcf72; stroke-linecap:round; stroke-linejoin:round; stroke-width:4; stroke-opacity:1; fill:none" points="306.018,536.294 486.17,280.074 870.319,324.029 1536.66,303.858 1964.94,1117.66 1198.5,1244.79 502,1372.96 "></polyline>
<polyline clip-path="url(#clip222)" style="stroke:#7dcf72; stroke-linecap:round; stroke-linejoin:round; stroke-width:4; stroke-opacity:1; fill:none" points="326.975,516.957 481.657,274.126 913.606,309.812 1595.74,300.409 2032.9,1154.92 1230.93,1226.78 480.493,1374.19 "></polyline>
<polyline clip-path="url(#clip222)" style="stroke:#7dcf72; stroke-linecap:round; stroke-linejoin:round; stroke-width:4; stroke-opacity:1; fill:none" points="338.474,505.909 506.935,244.218 959.012,311.023 1657.03,314.513 2085.03,1177.6 1288.22,1222.71 454.985,1394.29 "></polyline>
<polyline clip-path="url(#clip222)" style="stroke:#98de8a; stroke-linecap:round; stroke-linejoin:round; stroke-width:4; stroke-opacity:1; fill:none" points="366.692,580.12 475.879,421.099 800.042,340.487 1259.76,433.557 1353.89,1193.4 864.544,1205.49 463.805,1232.69 "></polyline>
<polyline clip-path="url(#clip222)" style="stroke:#98de8a; stroke-linecap:round; stroke-linejoin:round; stroke-width:4; stroke-opacity:1; fill:none" points="256.912,593.676 385.401,374.063 720.466,243.96 1349.22,254.135 1617.2,1103.24 1050.85,1197.4 579.85,1285.81 "></polyline>
<polyline clip-path="url(#clip222)" style="stroke:#98de8a; stroke-linecap:round; stroke-linejoin:round; stroke-width:4; stroke-opacity:1; fill:none" points="250.579,566.053 357.475,352.711 716.525,214.978 1389.91,201.296 1751.55,1083.29 1141.97,1188.68 606.453,1311.17 "></polyline>
<polyline clip-path="url(#clip222)" style="stroke:#98de8a; stroke-linecap:round; stroke-linejoin:round; stroke-width:4; stroke-opacity:1; fill:none" points="227.302,553.664 357.921,311.974 736.918,239.149 1439.45,225.82 1870.25,1049.77 1189.05,1199.74 588.523,1333.52 "></polyline>
<polyline clip-path="url(#clip222)" style="stroke:#98de8a; stroke-linecap:round; stroke-linejoin:round; stroke-width:4; stroke-opacity:1; fill:none" points="243.265,513.967 400.577,291.648 785.782,233.691 1486.53,228.023 1961.54,1064.63 1226.46,1232.58 571.077,1374.76 "></polyline>
<polyline clip-path="url(#clip222)" style="stroke:#98de8a; stroke-linecap:round; stroke-linejoin:round; stroke-width:4; stroke-opacity:1; fill:none" points="277.541,524.194 476.106,218.38 859.436,212.795 1574.15,258.736 2031.88,1125.95 1244.24,1272.98 529.262,1406.3 "></polyline>
<polyline clip-path="url(#clip222)" style="stroke:#98de8a; stroke-linecap:round; stroke-linejoin:round; stroke-width:4; stroke-opacity:1; fill:none" points="273.883,519.686 458.068,239.933 925.891,247.054 1656.6,272.734 2138.68,1126.2 1303.27,1283.25 495.745,1405.73 "></polyline>
<polyline clip-path="url(#clip222)" style="stroke:#98de8a; stroke-linecap:round; stroke-linejoin:round; stroke-width:4; stroke-opacity:1; fill:none" points="307.526,517.402 450.354,240.452 974.253,249.343 1692.59,262.308 2230.77,1135.07 1333.19,1297.64 494.572,1396.43 "></polyline>
<polyline clip-path="url(#clip222)" style="stroke:#c35e45; stroke-linecap:round; stroke-linejoin:round; stroke-width:4; stroke-opacity:1; fill:none" points="299.94,583.089 465.768,441.262 770.952,359.5 1244.13,425.787 1321.75,1136.26 898.084,1167.27 520.365,1203.06 "></polyline>
<polyline clip-path="url(#clip222)" style="stroke:#c35e45; stroke-linecap:round; stroke-linejoin:round; stroke-width:4; stroke-opacity:1; fill:none" points="245.198,590.571 378.203,392.645 708.358,260.513 1303.21,244.932 1631.14,1071.36 1074.4,1176.63 585.748,1270.86 "></polyline>
<polyline clip-path="url(#clip222)" style="stroke:#c35e45; stroke-linecap:round; stroke-linejoin:round; stroke-width:4; stroke-opacity:1; fill:none" points="210.454,579.293 348.784,342.07 727.654,249.946 1399.82,235.469 1740.86,1047.32 1155.83,1194.63 607.216,1304.78 "></polyline>
<polyline clip-path="url(#clip222)" style="stroke:#c35e45; stroke-linecap:round; stroke-linejoin:round; stroke-width:4; stroke-opacity:1; fill:none" points="225.452,539.845 375.744,324.394 776.977,268.613 1454.9,252.993 1869.35,1048.63 1204.38,1194.81 596.28,1347.71 "></polyline>
<polyline clip-path="url(#clip222)" style="stroke:#c35e45; stroke-linecap:round; stroke-linejoin:round; stroke-width:4; stroke-opacity:1; fill:none" points="244.968,546.19 431.239,290.221 842.548,247.297 1523.78,247.565 1988.31,1104.4 1209.17,1231.77 571.023,1365.63 "></polyline>
<polyline clip-path="url(#clip222)" style="stroke:#c35e45; stroke-linecap:round; stroke-linejoin:round; stroke-width:4; stroke-opacity:1; fill:none" points="279.172,549.187 481.393,227.928 902.518,245.162 1597.11,263.878 2095.68,1135.05 1248.81,1267.11 532.122,1372.85 "></polyline>
<polyline clip-path="url(#clip222)" style="stroke:#c35e45; stroke-linecap:round; stroke-linejoin:round; stroke-width:4; stroke-opacity:1; fill:none" points="278.682,534.736 455.762,239.807 963.15,252.812 1668.42,270.06 2175.18,1139.88 1315.29,1268.42 506.889,1391.87 "></polyline>
<polyline clip-path="url(#clip222)" style="stroke:#c35e45; stroke-linecap:round; stroke-linejoin:round; stroke-width:4; stroke-opacity:1; fill:none" points="301.785,510.658 453.21,212.512 979.001,248.604 1680.85,268.019 2258.54,1137.72 1366.86,1250.36 495.208,1401.22 "></polyline>
<polyline clip-path="url(#clip222)" style="stroke:#f0706f; stroke-linecap:round; stroke-linejoin:round; stroke-width:4; stroke-opacity:1; fill:none" points="319.827,602.348 432.859,455.731 761.594,351.145 1284.84,414.119 1317.94,1164.53 885.481,1174.8 517.359,1200.72 "></polyline>
<polyline clip-path="url(#clip222)" style="stroke:#f0706f; stroke-linecap:round; stroke-linejoin:round; stroke-width:4; stroke-opacity:1; fill:none" points="271.624,584.008 404.718,369.847 735.149,253.942 1316.56,294.917 1568.14,1107.74 1014.47,1193.72 552.368,1266.16 "></polyline>
<polyline clip-path="url(#clip222)" style="stroke:#f0706f; stroke-linecap:round; stroke-linejoin:round; stroke-width:4; stroke-opacity:1; fill:none" points="257.581,577.407 389.253,365.062 733.705,240.045 1408.35,251.373 1738.47,1092.4 1127.29,1187.6 587.873,1291.22 "></polyline>
<polyline clip-path="url(#clip222)" style="stroke:#f0706f; stroke-linecap:round; stroke-linejoin:round; stroke-width:4; stroke-opacity:1; fill:none" points="224.204,583.327 372.617,349.196 726.414,241.862 1406.81,227.899 1850.58,1064.84 1173.87,1170.07 592.906,1307.7 "></polyline>
<polyline clip-path="url(#clip222)" style="stroke:#f0706f; stroke-linecap:round; stroke-linejoin:round; stroke-width:4; stroke-opacity:1; fill:none" points="270.351,541.521 434.185,305.647 780.953,252.951 1460.35,255.643 1922.37,1078.55 1210.69,1199.25 576.188,1363.43 "></polyline>
<polyline clip-path="url(#clip222)" style="stroke:#f0706f; stroke-linecap:round; stroke-linejoin:round; stroke-width:4; stroke-opacity:1; fill:none" points="292.876,509.886 483.799,224.9 896.354,227.151 1562.23,268.921 2021.9,1156.48 1263.21,1236.83 497.918,1394.93 "></polyline>
<polyline clip-path="url(#clip222)" style="stroke:#f0706f; stroke-linecap:round; stroke-linejoin:round; stroke-width:4; stroke-opacity:1; fill:none" points="307.327,514.329 486.28,228.782 932.275,252.473 1630.26,286.515 2089.23,1153.91 1303.17,1234.69 507.753,1402.57 "></polyline>
<polyline clip-path="url(#clip222)" style="stroke:#f0706f; stroke-linecap:round; stroke-linejoin:round; stroke-width:4; stroke-opacity:1; fill:none" points="319.047,480.124 511.608,212.749 984.35,273.26 1685.51,291.46 2152.03,1166.68 1349.3,1252.67 480.102,1408.11 "></polyline>
<polyline clip-path="url(#clip222)" style="stroke:#ff9895; stroke-linecap:round; stroke-linejoin:round; stroke-width:4; stroke-opacity:1; fill:none" points="321.062,630.437 453.044,441.111 750.565,359.879 1253.21,439.123 1289.83,1153.98 869.413,1174.38 502.993,1218.13 "></polyline>
<polyline clip-path="url(#clip222)" style="stroke:#ff9895; stroke-linecap:round; stroke-linejoin:round; stroke-width:4; stroke-opacity:1; fill:none" points="239.817,603.068 399.27,383.423 730.96,251.481 1310.15,270.512 1573.95,1110.67 1041.24,1161.5 587.741,1250.57 "></polyline>
<polyline clip-path="url(#clip222)" style="stroke:#ff9895; stroke-linecap:round; stroke-linejoin:round; stroke-width:4; stroke-opacity:1; fill:none" points="272.798,569.851 406.957,342.245 756.543,251.928 1401.06,256.904 1701.82,1116.05 1111.23,1191.63 574.021,1290.8 "></polyline>
<polyline clip-path="url(#clip222)" style="stroke:#ff9895; stroke-linecap:round; stroke-linejoin:round; stroke-width:4; stroke-opacity:1; fill:none" points="264.038,531.619 411.117,301.597 810.385,252.549 1441.75,251.133 1843.43,1123.29 1129.27,1193.73 552.38,1322.23 "></polyline>
<polyline clip-path="url(#clip222)" style="stroke:#ff9895; stroke-linecap:round; stroke-linejoin:round; stroke-width:4; stroke-opacity:1; fill:none" points="265.686,545.506 437.631,288.483 808.526,263.254 1479.57,250.239 1916.12,1113.49 1185.69,1205.68 551.993,1343.23 "></polyline>
<polyline clip-path="url(#clip222)" style="stroke:#ff9895; stroke-linecap:round; stroke-linejoin:round; stroke-width:4; stroke-opacity:1; fill:none" points="309.703,497.2 489.108,246.306 868.915,262.316 1538.87,278.867 2000.9,1143.17 1219.99,1214.74 521.895,1373.2 "></polyline>
<polyline clip-path="url(#clip222)" style="stroke:#ff9895; stroke-linecap:round; stroke-linejoin:round; stroke-width:4; stroke-opacity:1; fill:none" points="314.454,504.416 494.101,232.947 906.636,277.801 1575.2,283.382 2060.33,1137.58 1244.3,1263.78 487.209,1375.15 "></polyline>
<polyline clip-path="url(#clip222)" style="stroke:#ff9895; stroke-linecap:round; stroke-linejoin:round; stroke-width:4; stroke-opacity:1; fill:none" points="334.145,505.765 523.949,202.914 979.379,283.834 1657.54,301.051 2171.4,1167.33 1308.24,1262.42 453.298,1417.15 "></polyline>
<polyline clip-path="url(#clip222)" style="stroke:#be7aad; stroke-linecap:round; stroke-linejoin:round; stroke-width:4; stroke-opacity:1; fill:none" points="324.909,584.223 478.264,444.504 783.229,352.611 1262.43,433.345 1332.33,1173.48 888.007,1174.5 485.261,1211.63 "></polyline>
<polyline clip-path="url(#clip222)" style="stroke:#be7aad; stroke-linecap:round; stroke-linejoin:round; stroke-width:4; stroke-opacity:1; fill:none" points="285.007,576.624 414.662,375.622 733.479,269.381 1389.36,318.711 1605.51,1113.24 1058.43,1175.57 549.073,1278.63 "></polyline>
<polyline clip-path="url(#clip222)" style="stroke:#be7aad; stroke-linecap:round; stroke-linejoin:round; stroke-width:4; stroke-opacity:1; fill:none" points="278.535,572.261 420.253,320.096 749.274,263.035 1429.32,274.611 1724.17,1111.15 1114.15,1199.61 558.694,1300.11 "></polyline>
<polyline clip-path="url(#clip222)" style="stroke:#be7aad; stroke-linecap:round; stroke-linejoin:round; stroke-width:4; stroke-opacity:1; fill:none" points="259.52,565.129 409.262,306 739.293,255.484 1435.36,251.987 1834.08,1093.71 1147.73,1176.75 562.732,1330.64 "></polyline>
<polyline clip-path="url(#clip222)" style="stroke:#be7aad; stroke-linecap:round; stroke-linejoin:round; stroke-width:4; stroke-opacity:1; fill:none" points="291.336,514.392 462.447,258.026 798.808,243.111 1492.07,259.377 1937.79,1102.04 1205.98,1221.37 559.249,1364.97 "></polyline>
<polyline clip-path="url(#clip222)" style="stroke:#be7aad; stroke-linecap:round; stroke-linejoin:round; stroke-width:4; stroke-opacity:1; fill:none" points="306.153,501.258 513.823,201.113 908.169,222.105 1590.53,298.182 2026.05,1155.62 1225.06,1277.84 498.347,1387.83 "></polyline>
<polyline clip-path="url(#clip222)" style="stroke:#be7aad; stroke-linecap:round; stroke-linejoin:round; stroke-width:4; stroke-opacity:1; fill:none" points="308.201,510.467 530.521,202.188 936.577,256.216 1635.53,309.466 2074.35,1162.99 1274.39,1265.91 475.89,1385.44 "></polyline>
<polyline clip-path="url(#clip222)" style="stroke:#be7aad; stroke-linecap:round; stroke-linejoin:round; stroke-width:4; stroke-opacity:1; fill:none" points="319.946,512.768 526.625,192.186 974.768,283.555 1663.17,310.604 2114.21,1156.15 1311.58,1273.99 476.847,1396.04 "></polyline>
<polyline clip-path="url(#clip222)" style="stroke:#9466bd; stroke-linecap:round; stroke-linejoin:round; stroke-width:4; stroke-opacity:1; fill:none" points="298.826,574.144 490.936,448.151 811.917,345.943 1317.26,441.351 1418.59,1148.58 927.446,1181.88 501.543,1236.43 "></polyline>
<polyline clip-path="url(#clip222)" style="stroke:#9466bd; stroke-linecap:round; stroke-linejoin:round; stroke-width:4; stroke-opacity:1; fill:none" points="293.545,575.679 411.37,396.831 745.24,268.679 1371.21,292.389 1652.81,1105.15 1069.56,1189.26 567.924,1271.47 "></polyline>
<polyline clip-path="url(#clip222)" style="stroke:#9466bd; stroke-linecap:round; stroke-linejoin:round; stroke-width:4; stroke-opacity:1; fill:none" points="279.299,560.886 435.193,341.232 763.518,263.867 1422.9,267.129 1762.02,1101.04 1124.59,1210.35 577.987,1314.92 "></polyline>
<polyline clip-path="url(#clip222)" style="stroke:#9466bd; stroke-linecap:round; stroke-linejoin:round; stroke-width:4; stroke-opacity:1; fill:none" points="260.743,553.237 406.153,298.545 759.307,250.444 1457.35,237.817 1868.96,1082.52 1179.1,1227 552.948,1350.86 "></polyline>
<polyline clip-path="url(#clip222)" style="stroke:#9466bd; stroke-linecap:round; stroke-linejoin:round; stroke-width:4; stroke-opacity:1; fill:none" points="265.273,549.175 431.663,262.358 790.699,245.889 1499.69,245.165 1943.14,1107.89 1209.08,1208.99 542.849,1386.14 "></polyline>
<polyline clip-path="url(#clip222)" style="stroke:#9466bd; stroke-linecap:round; stroke-linejoin:round; stroke-width:4; stroke-opacity:1; fill:none" points="319.154,520.443 519.345,220.213 892.225,243.71 1566.87,279.527 2034.9,1163.06 1203.08,1279.31 486.824,1418.45 "></polyline>
<polyline clip-path="url(#clip222)" style="stroke:#9466bd; stroke-linecap:round; stroke-linejoin:round; stroke-width:4; stroke-opacity:1; fill:none" points="346.926,503.944 532.503,209.729 974.818,265.223 1654.07,287.135 2155,1184.78 1286.05,1277.91 460.019,1435.59 "></polyline>
<polyline clip-path="url(#clip222)" style="stroke:#9466bd; stroke-linecap:round; stroke-linejoin:round; stroke-width:4; stroke-opacity:1; fill:none" points="350.105,472.469 517.96,219.53 983.017,302.434 1680.35,283.377 2226.73,1159.87 1332.56,1264.14 464.731,1447.87 "></polyline>
<polyline clip-path="url(#clip222)" style="stroke:#ae8fca; stroke-linecap:round; stroke-linejoin:round; stroke-width:4; stroke-opacity:1; fill:none" points="327.702,569.036 479.686,439.919 768.223,322.362 1313.54,383.761 1416.07,1175.69 912.389,1210.31 507.108,1228.72 "></polyline>
<polyline clip-path="url(#clip222)" style="stroke:#ae8fca; stroke-linecap:round; stroke-linejoin:round; stroke-width:4; stroke-opacity:1; fill:none" points="251.987,562.406 385.112,381.24 760.651,225.381 1382.71,255.645 1607.46,1135.46 1079.86,1200.12 563.225,1303.3 "></polyline>
<polyline clip-path="url(#clip222)" style="stroke:#ae8fca; stroke-linecap:round; stroke-linejoin:round; stroke-width:4; stroke-opacity:1; fill:none" points="251.4,560.333 389.244,353.466 769.003,220.745 1489.64,216.796 1777.08,1144.39 1132.69,1215.15 594.278,1320.95 "></polyline>
<polyline clip-path="url(#clip222)" style="stroke:#ae8fca; stroke-linecap:round; stroke-linejoin:round; stroke-width:4; stroke-opacity:1; fill:none" points="244.066,531.718 389.858,297.408 791.327,207.358 1516.31,214.455 1864.49,1144.27 1130.17,1213.56 586.178,1342.22 "></polyline>
<polyline clip-path="url(#clip222)" style="stroke:#ae8fca; stroke-linecap:round; stroke-linejoin:round; stroke-width:4; stroke-opacity:1; fill:none" points="278.827,508.907 441.859,257.358 858.503,207.314 1586.36,226.96 1941.83,1168.22 1230.12,1245.41 553.463,1378.83 "></polyline>
<polyline clip-path="url(#clip222)" style="stroke:#ae8fca; stroke-linecap:round; stroke-linejoin:round; stroke-width:4; stroke-opacity:1; fill:none" points="300.187,515.663 487.494,220.536 905.005,206.92 1648.75,243.843 2047.9,1186.37 1245.76,1284.52 522.373,1412.49 "></polyline>
<polyline clip-path="url(#clip222)" style="stroke:#ae8fca; stroke-linecap:round; stroke-linejoin:round; stroke-width:4; stroke-opacity:1; fill:none" points="304.015,516.474 477.294,205.489 940.715,236.99 1699.48,256.588 2135.28,1177.19 1296.04,1285 489.209,1401.72 "></polyline>
<polyline clip-path="url(#clip222)" style="stroke:#ae8fca; stroke-linecap:round; stroke-linejoin:round; stroke-width:4; stroke-opacity:1; fill:none" points="311.911,529.11 518.225,207.861 978.349,245.892 1728.64,263.497 2194.68,1204.56 1342.07,1272.8 456.186,1419.14 "></polyline>
<polyline clip-path="url(#clip222)" style="stroke:#c4b0d5; stroke-linecap:round; stroke-linejoin:round; stroke-width:4; stroke-opacity:1; fill:none" points="323.377,574.029 466.861,417.451 809.528,314.269 1299.3,415.249 1358.68,1198.1 909.816,1206.13 477.948,1250.03 "></polyline>
<polyline clip-path="url(#clip222)" style="stroke:#c4b0d5; stroke-linecap:round; stroke-linejoin:round; stroke-width:4; stroke-opacity:1; fill:none" points="225.757,589.561 375.373,360.573 724.424,225.895 1342.34,229.481 1643.83,1097.98 1073.99,1191.23 585.577,1290.91 "></polyline>
<polyline clip-path="url(#clip222)" style="stroke:#c4b0d5; stroke-linecap:round; stroke-linejoin:round; stroke-width:4; stroke-opacity:1; fill:none" points="230.316,562.66 402.874,298.836 781.992,213.34 1464.21,246.928 1786.17,1116.27 1126.9,1229.55 568.812,1327.31 "></polyline>
<polyline clip-path="url(#clip222)" style="stroke:#c4b0d5; stroke-linecap:round; stroke-linejoin:round; stroke-width:4; stroke-opacity:1; fill:none" points="241.555,541.729 407.063,306.383 794.214,218.361 1477.33,219.684 1926.8,1098.92 1199.49,1224.55 570.988,1353.91 "></polyline>
<polyline clip-path="url(#clip222)" style="stroke:#c4b0d5; stroke-linecap:round; stroke-linejoin:round; stroke-width:4; stroke-opacity:1; fill:none" points="266.821,540.957 411.639,289.222 816.682,243.861 1539.1,212.459 2013.09,1100.95 1244.78,1253.29 559.652,1374.74 "></polyline>
<polyline clip-path="url(#clip222)" style="stroke:#c4b0d5; stroke-linecap:round; stroke-linejoin:round; stroke-width:4; stroke-opacity:1; fill:none" points="277.044,536.037 494.099,218.011 892.683,215.051 1613.21,235.818 2116.58,1163.24 1272.66,1272.98 503.078,1386.28 "></polyline>
<polyline clip-path="url(#clip222)" style="stroke:#c4b0d5; stroke-linecap:round; stroke-linejoin:round; stroke-width:4; stroke-opacity:1; fill:none" points="303.821,509.341 483.461,185.017 952.112,214.182 1676.64,244.965 2206.64,1174.56 1330.29,1276.03 476.88,1398.05 "></polyline>
<polyline clip-path="url(#clip222)" style="stroke:#c4b0d5; stroke-linecap:round; stroke-linejoin:round; stroke-width:4; stroke-opacity:1; fill:none" points="301.394,522.102 482.026,162.047 993.583,221.817 1765.38,250.799 2290.36,1192.2 1382.48,1279.08 448.628,1430.7 "></polyline>
<polyline clip-path="url(#clip222)" style="stroke:#8b564a; stroke-linecap:round; stroke-linejoin:round; stroke-width:4; stroke-opacity:1; fill:none" points="342.324,566.658 467.39,433.234 761.813,328.304 1284.93,395.38 1386.97,1178.5 902.479,1190.58 481.948,1219.11 "></polyline>
<polyline clip-path="url(#clip222)" style="stroke:#8b564a; stroke-linecap:round; stroke-linejoin:round; stroke-width:4; stroke-opacity:1; fill:none" points="247.297,548.78 398.361,383.781 715.914,225.16 1336.86,235.383 1654.3,1085.27 1125.58,1186.42 569.684,1284.99 "></polyline>
<polyline clip-path="url(#clip222)" style="stroke:#8b564a; stroke-linecap:round; stroke-linejoin:round; stroke-width:4; stroke-opacity:1; fill:none" points="262.016,578.15 370.281,336.832 756.791,210.738 1401.58,227.085 1759.59,1100.32 1146.09,1197.63 587.257,1297.6 "></polyline>
<polyline clip-path="url(#clip222)" style="stroke:#8b564a; stroke-linecap:round; stroke-linejoin:round; stroke-width:4; stroke-opacity:1; fill:none" points="239.758,574.96 384.904,294.81 724.01,236.607 1435.33,210.925 1882.4,1062.99 1205.04,1189.92 603.15,1323.7 "></polyline>
<polyline clip-path="url(#clip222)" style="stroke:#8b564a; stroke-linecap:round; stroke-linejoin:round; stroke-width:4; stroke-opacity:1; fill:none" points="267.252,551.807 422.11,279.555 779.797,244.092 1473.35,233.679 1948.79,1084.71 1232.39,1194.86 586.826,1352.2 "></polyline>
<polyline clip-path="url(#clip222)" style="stroke:#8b564a; stroke-linecap:round; stroke-linejoin:round; stroke-width:4; stroke-opacity:1; fill:none" points="309.035,531.009 499.822,225.269 890.404,230.371 1587.78,252.818 2058.57,1157.21 1258.55,1279.52 502.282,1416.11 "></polyline>
<polyline clip-path="url(#clip222)" style="stroke:#8b564a; stroke-linecap:round; stroke-linejoin:round; stroke-width:4; stroke-opacity:1; fill:none" points="312.668,521.373 527.261,195.395 954.572,243.7 1670.91,271.775 2123.26,1182.43 1309.86,1282.95 484.666,1407.12 "></polyline>
<polyline clip-path="url(#clip222)" style="stroke:#8b564a; stroke-linecap:round; stroke-linejoin:round; stroke-width:4; stroke-opacity:1; fill:none" points="300.322,508.334 491.803,176.737 994.719,250.404 1710.55,281.056 2224.55,1185.08 1340.35,1243.63 455.532,1411.6 "></polyline>
</svg>